<svg width="132" height="44" viewBox="0 0 132 44" fill="none" xmlns="http://www.w3.org/2000/svg">
<path d="M89.6784 21.121V23.6411H88.0987V25.2938H89.6784V30.9093C89.6784 32.8268 90.5458 33.5938 92.7281 33.5938C93.1116 33.5938 93.4768 33.5481 93.7964 33.4933V31.8589C93.5224 31.8863 93.349 31.9046 93.0476 31.9046C92.0706 31.9046 91.6415 31.448 91.6415 30.4071V25.2938H93.7964V23.6411H91.6415V21.121H89.6784Z" fill="white"/>
<path d="M99.3556 33.7307C102.259 33.7307 104.04 31.7859 104.04 28.5627C104.04 25.3577 102.25 23.4037 99.3556 23.4037C96.452 23.4037 94.6623 25.3577 94.6623 28.5627C94.6623 31.7859 96.4429 33.7307 99.3556 33.7307ZM99.3556 31.9867C97.6481 31.9867 96.6894 30.7358 96.6894 28.5627C96.6894 26.4078 97.6481 25.1477 99.3556 25.1477C101.054 25.1477 102.022 26.4078 102.022 28.5627C102.022 30.7267 101.054 31.9867 99.3556 31.9867Z" fill="white"/>
<path d="M105.563 33.539H107.526V27.6678C107.526 26.2708 108.576 25.3303 110.065 25.3303C110.412 25.3303 110.996 25.3943 111.16 25.449V23.5133C110.95 23.4585 110.576 23.4311 110.284 23.4311C108.987 23.4311 107.882 24.1433 107.599 25.1203H107.453V23.5955H105.563V33.539Z" fill="white"/>
<path d="M116.035 25.0747C117.487 25.0747 118.436 26.0882 118.482 27.6496H113.46C113.569 26.0973 114.583 25.0747 116.035 25.0747ZM118.473 30.8545C118.107 31.6306 117.295 32.0598 116.108 32.0598C114.537 32.0598 113.524 30.955 113.46 29.211V29.1014H120.481V28.4166C120.481 25.2938 118.811 23.4037 116.044 23.4037C113.241 23.4037 111.46 25.4217 111.46 28.5992C111.46 31.7767 113.204 33.7307 116.053 33.7307C118.327 33.7307 119.915 32.635 120.363 30.8545H118.473Z" fill="white"/>
<path d="M76.8044 29.867C76.9558 32.3087 78.9906 33.8702 82.019 33.8702C85.2556 33.8702 87.2809 32.233 87.2809 29.6209C87.2809 27.5673 86.1263 26.4316 83.325 25.7786L81.8203 25.4095C80.041 24.9931 79.3218 24.4347 79.3218 23.46C79.3218 22.2297 80.4385 21.4252 82.1136 21.4252C83.7036 21.4252 84.8014 22.2107 85.0001 23.4694H87.0632C86.9402 21.1697 84.9149 19.5514 82.142 19.5514C79.1609 19.5514 77.1735 21.1697 77.1735 23.6019C77.1735 25.6083 78.2997 26.8007 80.7698 27.378L82.53 27.8039C84.3376 28.2298 85.1326 28.8544 85.1326 29.8954C85.1326 31.1068 83.8834 31.9869 82.1799 31.9869C80.3534 31.9869 79.0852 31.1636 78.9054 29.867H76.8044Z" fill="white"/>
<path d="M56.4683 23.4311C55.117 23.4311 53.9482 24.1068 53.3456 25.239H53.1995V23.5955H51.3094V36.8444H53.2725V32.0324H53.4278C53.9482 33.0824 55.0713 33.7033 56.4866 33.7033C58.9976 33.7033 60.5955 31.7219 60.5955 28.5627C60.5955 25.4034 58.9976 23.4311 56.4683 23.4311ZM55.9114 31.9411C54.2678 31.9411 53.236 30.6445 53.236 28.5718C53.236 26.49 54.2678 25.1934 55.9205 25.1934C57.5823 25.1934 58.5776 26.4626 58.5776 28.5627C58.5776 30.6719 57.5823 31.9411 55.9114 31.9411Z" fill="white"/>
<path d="M67.4648 23.4311C66.1134 23.4311 64.9447 24.1068 64.3421 25.239H64.196V23.5955H62.3059V36.8444H64.269V32.0324H64.4242C64.9447 33.0824 66.0678 33.7033 67.4831 33.7033C69.9941 33.7033 71.592 31.7219 71.592 28.5627C71.592 25.4034 69.9941 23.4311 67.4648 23.4311ZM66.9078 31.9411C65.2643 31.9411 64.2325 30.6445 64.2325 28.5718C64.2325 26.49 65.2643 25.1934 66.917 25.1934C68.5788 25.1934 69.574 26.4626 69.574 28.5627C69.574 30.6719 68.5788 31.9411 66.9078 31.9411Z" fill="white"/>
<path d="M47.7872 33.539H50.0396L45.1089 19.8826H42.8281L37.8975 33.539H40.0742L41.3328 29.9143H46.538L47.7872 33.539ZM43.8597 22.3622H44.0206L45.9985 28.1351H41.8723L43.8597 22.3622Z" fill="white"/>
<path d="M39.2163 9.58202V16.1699H41.5949C43.558 16.1699 44.6948 14.9601 44.6948 12.8554C44.6948 10.7827 43.5489 9.58202 41.5949 9.58202H39.2163ZM40.239 10.5134H41.4808C42.8458 10.5134 43.6539 11.3808 43.6539 12.8691C43.6539 14.3803 42.8595 15.2386 41.4808 15.2386H40.239V10.5134Z" fill="white"/>
<path d="M48.1764 16.2658C49.6282 16.2658 50.5185 15.2934 50.5185 13.6818C50.5185 12.0793 49.6237 11.1023 48.1764 11.1023C46.7246 11.1023 45.8298 12.0793 45.8298 13.6818C45.8298 15.2934 46.72 16.2658 48.1764 16.2658ZM48.1764 15.3938C47.3227 15.3938 46.8433 14.7683 46.8433 13.6818C46.8433 12.6043 47.3227 11.9743 48.1764 11.9743C49.0256 11.9743 49.5095 12.6043 49.5095 13.6818C49.5095 14.7638 49.0256 15.3938 48.1764 15.3938Z" fill="white"/>
<path d="M58.0998 11.1982H57.1183L56.2326 14.9921H56.155L55.1323 11.1982H54.1918L53.1692 14.9921H53.0961L52.2059 11.1982H51.2106L52.5802 16.1699H53.5892L54.6119 12.5085H54.6895L55.7167 16.1699H56.7348L58.0998 11.1982Z" fill="white"/>
<path d="M59.2302 16.1699H60.2118V13.2618C60.2118 12.4856 60.6729 12.0017 61.3988 12.0017C62.1247 12.0017 62.4717 12.3989 62.4717 13.1978V16.1699H63.4533V12.9513C63.4533 11.7689 62.8415 11.1023 61.7321 11.1023C60.9834 11.1023 60.4903 11.4356 60.2483 11.988H60.1753V11.1982H59.2302V16.1699Z" fill="white"/>
<path d="M64.9991 16.1699H65.9807V9.25787H64.9991V16.1699Z" fill="white"/>
<path d="M69.6723 16.2658C71.1241 16.2658 72.0144 15.2934 72.0144 13.6818C72.0144 12.0793 71.1195 11.1023 69.6723 11.1023C68.2205 11.1023 67.3257 12.0793 67.3257 13.6818C67.3257 15.2934 68.2159 16.2658 69.6723 16.2658ZM69.6723 15.3938C68.8186 15.3938 68.3392 14.7683 68.3392 13.6818C68.3392 12.6043 68.8186 11.9743 69.6723 11.9743C70.5215 11.9743 71.0054 12.6043 71.0054 13.6818C71.0054 14.7638 70.5215 15.3938 69.6723 15.3938Z" fill="white"/>
<path d="M74.939 15.4258C74.4048 15.4258 74.0168 15.1655 74.0168 14.7181C74.0168 14.2798 74.3272 14.047 75.012 14.0014L76.2264 13.9237V14.3392C76.2264 14.9555 75.6786 15.4258 74.939 15.4258ZM74.6879 16.2521C75.3407 16.2521 75.884 15.9691 76.1808 15.4714H76.2584V16.1699H77.2034V12.7733C77.2034 11.7232 76.5003 11.1023 75.254 11.1023C74.1263 11.1023 73.3228 11.6502 73.2224 12.5039H74.172C74.2816 12.1524 74.6605 11.9515 75.2083 11.9515C75.8794 11.9515 76.2264 12.2482 76.2264 12.7733V13.2024L74.8796 13.28C73.6972 13.3531 73.0306 13.869 73.0306 14.7638C73.0306 15.6723 73.7291 16.2521 74.6879 16.2521Z" fill="white"/>
<path d="M80.5344 16.2521C81.2192 16.2521 81.799 15.928 82.0957 15.3847H82.1734V16.1699H83.1138V9.25787H82.1323V11.988H82.0592C81.7899 11.4401 81.2146 11.116 80.5344 11.116C79.2789 11.116 78.4708 12.1113 78.4708 13.6818C78.4708 15.2568 79.2697 16.2521 80.5344 16.2521ZM80.8129 11.9971C81.6346 11.9971 82.1505 12.65 82.1505 13.6863C82.1505 14.7273 81.6392 15.371 80.8129 15.371C79.9819 15.371 79.4843 14.7364 79.4843 13.6818C79.4843 12.6363 79.9865 11.9971 80.8129 11.9971Z" fill="white"/>
<path d="M89.479 16.2658C90.9308 16.2658 91.821 15.2934 91.821 13.6818C91.821 12.0793 90.9262 11.1023 89.479 11.1023C88.0271 11.1023 87.1323 12.0793 87.1323 13.6818C87.1323 15.2934 88.0226 16.2658 89.479 16.2658ZM89.479 15.3938C88.6252 15.3938 88.1459 14.7683 88.1459 13.6818C88.1459 12.6043 88.6252 11.9743 89.479 11.9743C90.3281 11.9743 90.8121 12.6043 90.8121 13.6818C90.8121 14.7638 90.3281 15.3938 89.479 15.3938Z" fill="white"/>
<path d="M93.1203 16.1699H94.1019V13.2618C94.1019 12.4856 94.563 12.0017 95.2889 12.0017C96.0148 12.0017 96.3618 12.3989 96.3618 13.1978V16.1699H97.3434V12.9513C97.3434 11.7689 96.7316 11.1023 95.6222 11.1023C94.8735 11.1023 94.3804 11.4356 94.1384 11.988H94.0654V11.1982H93.1203V16.1699Z" fill="white"/>
<path d="M101.864 9.96095V11.221H101.074V12.0474H101.864V14.8551C101.864 15.8138 102.298 16.1973 103.389 16.1973C103.581 16.1973 103.763 16.1745 103.923 16.1471V15.3299C103.786 15.3436 103.699 15.3527 103.549 15.3527C103.06 15.3527 102.846 15.1245 102.846 14.604V12.0474H103.923V11.221H102.846V9.96095H101.864Z" fill="white"/>
<path d="M105.241 16.1699H106.222V13.2663C106.222 12.513 106.67 12.0063 107.473 12.0063C108.167 12.0063 108.537 12.408 108.537 13.2024V16.1699H109.518V12.9604C109.518 11.778 108.866 11.1069 107.806 11.1069C107.058 11.1069 106.533 11.4401 106.291 11.9971H106.213V9.25787H105.241V16.1699Z" fill="white"/>
<path d="M113.059 11.9378C113.785 11.9378 114.26 12.4445 114.283 13.2252H111.772C111.827 12.4491 112.333 11.9378 113.059 11.9378ZM114.278 14.8277C114.096 15.2158 113.689 15.4303 113.096 15.4303C112.311 15.4303 111.804 14.8779 111.772 14.0059V13.9511H115.283V13.6087C115.283 12.0474 114.447 11.1023 113.064 11.1023C111.662 11.1023 110.772 12.1113 110.772 13.7C110.772 15.2888 111.644 16.2658 113.069 16.2658C114.205 16.2658 115 15.718 115.223 14.8277H114.278Z" fill="white"/>
<path d="M27.2458 22.3309C27.2696 20.4818 28.2627 18.7322 29.838 17.7637C28.8442 16.3443 27.1796 15.4444 25.4477 15.3902C23.6006 15.1963 21.8098 16.4955 20.8685 16.4955C19.909 16.4955 18.4598 15.4095 16.8992 15.4416C14.865 15.5073 12.9687 16.6638 11.979 18.4422C9.85158 22.1255 11.4384 27.5386 13.4763 30.5159C14.4959 31.9738 15.6875 33.6023 17.2467 33.5445C18.7725 33.4813 19.3423 32.5716 21.184 32.5716C23.0087 32.5716 23.5433 33.5445 25.1341 33.5078C26.7714 33.4813 27.8029 32.0435 28.7867 30.5718C29.5193 29.533 30.083 28.3849 30.457 27.17C28.5329 26.3562 27.248 24.42 27.2458 22.3309Z" fill="white"/>
<path d="M24.241 13.4322C25.1336 12.3606 25.5734 10.9832 25.4669 9.59253C24.1031 9.73577 22.8433 10.3876 21.9386 11.4181C21.0539 12.425 20.5935 13.7781 20.6805 15.1156C22.0448 15.1297 23.386 14.4955 24.241 13.4322Z" fill="white"/>
<path d="M4.32122 43.4672L4.7039 42.5433L4.32122 43.4672ZM0.532843 39.6788L1.45672 39.2961L0.532843 39.6788ZM131.467 39.6788L130.543 39.2961L131.467 39.6788ZM127.679 43.4672L127.296 42.5433L127.679 43.4672ZM127.679 0.532843L128.061 -0.391036L127.679 0.532843ZM131.467 4.32122L132.391 3.93853L131.467 4.32122ZM10.5 1H121.5V-1H10.5V1ZM131 10.5V33.5H133V10.5H131ZM121.5 43H10.5V45H121.5V43ZM1 33.5V10.5H-1V33.5H1ZM10.5 43C8.85552 43 7.67224 42.9995 6.73798 42.9357C5.8127 42.8726 5.20494 42.7508 4.7039 42.5433L3.93853 44.391C4.72389 44.7163 5.57473 44.861 6.60184 44.9311C7.61997 45.0005 8.88288 45 10.5 45V43ZM-1 33.5C-1 35.1171 -1.00054 36.38 -0.931075 37.3982C-0.860996 38.4253 -0.716341 39.2761 -0.391036 40.0615L1.45672 39.2961C1.24918 38.7951 1.12742 38.1873 1.06429 37.262C1.00054 36.3278 1 35.1445 1 33.5H-1ZM4.7039 42.5433C3.23373 41.9343 2.06569 40.7663 1.45672 39.2961L-0.391036 40.0615C0.420915 42.0217 1.97831 43.5791 3.93853 44.391L4.7039 42.5433ZM131 33.5C131 35.1445 130.999 36.3278 130.936 37.262C130.873 38.1873 130.751 38.7951 130.543 39.2961L132.391 40.0615C132.716 39.2761 132.861 38.4253 132.931 37.3982C133.001 36.38 133 35.1171 133 33.5H131ZM121.5 45C123.117 45 124.38 45.0005 125.398 44.9311C126.425 44.861 127.276 44.7163 128.061 44.391L127.296 42.5433C126.795 42.7508 126.187 42.8726 125.262 42.9357C124.328 42.9995 123.144 43 121.5 43V45ZM130.543 39.2961C129.934 40.7663 128.766 41.9343 127.296 42.5433L128.061 44.391C130.022 43.5791 131.579 42.0217 132.391 40.0615L130.543 39.2961ZM121.5 1C123.144 1 124.328 1.00054 125.262 1.06429C126.187 1.12742 126.795 1.24918 127.296 1.45672L128.061 -0.391036C127.276 -0.716341 126.425 -0.860996 125.398 -0.931075C124.38 -1.00054 123.117 -1 121.5 -1V1ZM133 10.5C133 8.88289 133.001 7.61997 132.931 6.60184C132.861 5.57473 132.716 4.72389 132.391 3.93853L130.543 4.7039C130.751 5.20494 130.873 5.8127 130.936 6.73798C130.999 7.67225 131 8.85552 131 10.5H133ZM127.296 1.45672C128.766 2.06569 129.934 3.23373 130.543 4.7039L132.391 3.93853C131.579 1.97831 130.022 0.420915 128.061 -0.391036L127.296 1.45672ZM10.5 -1C8.88289 -1 7.61997 -1.00054 6.60184 -0.931075C5.57473 -0.860996 4.72389 -0.716341 3.93853 -0.391036L4.7039 1.45672C5.20494 1.24918 5.8127 1.12742 6.73798 1.06429C7.67225 1.00054 8.85552 1 10.5 1V-1ZM1 10.5C1 8.85552 1.00054 7.67225 1.06429 6.73798C1.12742 5.8127 1.24918 5.20494 1.45672 4.7039L-0.391036 3.93853C-0.716341 4.72389 -0.860996 5.57473 -0.931075 6.60184C-1.00054 7.61997 -1 8.88289 -1 10.5H1ZM3.93853 -0.391036C1.97831 0.420915 0.420915 1.97831 -0.391036 3.93853L1.45672 4.7039C2.06569 3.23373 3.23373 2.06569 4.7039 1.45672L3.93853 -0.391036Z" fill="white"/>
</svg>
