<svg width="26" height="16" viewBox="0 0 26 16" fill="none" xmlns="http://www.w3.org/2000/svg">
<path opacity="0.3" fill-rule="evenodd" clip-rule="evenodd" d="M24.8937 7.236L16.7988 0.316657C16.3049 -0.10539 15.5037 -0.10539 15.01 0.316657C14.516 0.739236 14.516 1.42364 15.01 1.84568L20.9457 6.91933H1.59569C0.897261 6.91933 0.330933 7.4032 0.330933 8.00052C0.330933 8.59729 0.897261 9.0817 1.59569 9.0817H20.9457L15.0101 14.1553C14.5161 14.5769 14.5161 15.2618 15.0101 15.6838C15.2571 15.8946 15.5809 16 15.9046 16C16.2283 16 16.5519 15.8946 16.7989 15.6838L24.8937 8.76449C25.3877 8.343 25.3877 7.65805 24.8937 7.236Z" fill="#1D2939"/>
</svg>
