<svg width="20" height="20" viewBox="0 0 20 20" fill="none" xmlns="http://www.w3.org/2000/svg">
<path fill-rule="evenodd" clip-rule="evenodd" d="M9.99996 0.000274658C4.48608 0.000274658 0 4.48521 0 10.0003C0 15.5142 4.48608 19.9997 9.99996 19.9997C15.5138 19.9997 20 15.5142 20 10.0003C20 4.48521 15.5138 0.000274658 9.99996 0.000274658ZM15.575 6.66531L9.42112 13.5884C9.2696 13.7583 9.05846 13.846 8.84571 13.846C8.67691 13.846 8.50731 13.7906 8.3654 13.6782L4.51916 10.6008C4.18761 10.3357 4.13384 9.85134 4.39921 9.51908C4.66426 9.1879 5.1488 9.1336 5.48035 9.39918L8.7561 12.0196L14.4249 5.64273C14.7066 5.32445 15.1934 5.29596 15.5107 5.57876C15.8284 5.86102 15.8573 6.34703 15.575 6.66531Z" fill="#FD853A"/>
</svg>
