<svg width="624" height="573" viewBox="0 0 624 573" fill="none" xmlns="http://www.w3.org/2000/svg">
<path fill-rule="evenodd" clip-rule="evenodd" d="M543.498 441.533C543.498 431.921 551.406 424.169 561.106 424.169C563.948 424.169 569.076 426.029 569.076 426.029L569.014 432.541L575.995 432.169C575.995 432.169 578.775 438.06 578.775 441.471C578.775 451.083 570.867 458.834 561.167 458.834C551.344 458.896 543.498 451.083 543.498 441.533Z" fill="#054F31"/>
<path fill-rule="evenodd" clip-rule="evenodd" d="M501.548 469.5C511 468.818 519.217 476.26 519.897 486.058C520.082 488.973 518.6 494.244 518.6 494.244L512.174 494.616L513.039 501.623C513.039 501.623 507.417 504.848 504.019 505.034C494.566 505.716 486.349 498.274 485.67 488.476C484.928 478.678 492.095 470.183 501.548 469.5Z" fill="#054F31"/>
<path d="M529.103 401.596L527.805 531.079" stroke="#101828" stroke-width="2.13" stroke-linecap="round" stroke-linejoin="round"/>
<path d="M516.437 416.417L528.176 434.401" stroke="#101828" stroke-width="2.13" stroke-linecap="round" stroke-linejoin="round"/>
<path d="M528.67 485.686L557.214 447.238" stroke="#101828" stroke-width="2.13" stroke-linecap="round" stroke-linejoin="round"/>
<path d="M502.907 484.073L527.743 519.173" stroke="#101828" stroke-width="2.13" stroke-linecap="round" stroke-linejoin="round"/>
<path fill-rule="evenodd" clip-rule="evenodd" d="M158.595 117.577H481.592V530.521H158.595V117.577Z" fill="#FD853A" stroke="#101828" stroke-width="2.13" stroke-linecap="round" stroke-linejoin="round"/>
<path d="M158.657 305.91L480.295 306.034" stroke="#101828" stroke-width="2.13" stroke-linecap="round" stroke-linejoin="round"/>
<path d="M158.657 416.107L480.295 416.231" stroke="#101828" stroke-width="2.13" stroke-linecap="round" stroke-linejoin="round"/>
<path fill-rule="evenodd" clip-rule="evenodd" d="M153.529 516.692H493.084V533.684H153.529V516.692Z" fill="#101828" stroke="#101828" stroke-width="2.13" stroke-linecap="round" stroke-linejoin="round"/>
<path d="M321.144 119.437L325.901 530.335" stroke="#101828" stroke-width="2.13" stroke-linecap="round" stroke-linejoin="round"/>
<path fill-rule="evenodd" clip-rule="evenodd" d="M277.464 400.666C268.135 416.231 237.923 477.934 237.923 477.934C237.923 477.934 220.439 488.6 198.691 497.468C184.79 503.112 163.599 506.336 161.931 511.297C157.421 524.816 206.909 513.84 225.072 512.413C243.545 510.925 273.571 532.258 290.623 520.909C301.744 513.53 290.191 495.67 291.179 485.624C292.168 475.578 298.346 407.239 304.648 398.93" fill="#EC4A0A"/>
<path d="M277.464 400.666C268.135 416.231 237.923 477.934 237.923 477.934C237.923 477.934 220.439 488.6 198.691 497.468C184.79 503.112 163.599 506.336 161.931 511.297C157.421 524.816 206.909 513.84 225.072 512.413C243.545 510.925 273.571 532.258 290.623 520.909C301.744 513.53 290.191 495.67 291.179 485.624C292.168 475.578 298.346 407.239 304.648 398.93" stroke="#101828" stroke-width="2.13" stroke-linecap="round" stroke-linejoin="round"/>
<path fill-rule="evenodd" clip-rule="evenodd" d="M373.041 426.277C373.041 426.277 293.033 287.492 243.607 329.165C216.67 351.862 193.069 477.314 193.069 477.314L241.568 487.98L273.942 435.021C273.942 435.021 288.337 500.507 315.027 513.034C330.04 520.103 390.772 524.072 420.181 517.251C443.04 511.979 442.607 489.717 442.607 489.717L373.041 426.277Z" fill="#101828" stroke="#101828" stroke-width="2.13" stroke-linecap="round" stroke-linejoin="round"/>
<path fill-rule="evenodd" clip-rule="evenodd" d="M252.874 405.813C243.545 421.378 213.334 483.081 213.334 483.081C213.334 483.081 195.849 493.748 174.102 502.615C160.201 508.259 139.01 511.483 137.342 516.444C132.77 529.963 172.928 524.196 191.092 522.77C209.565 521.281 242.186 529.653 252.689 521.343C263.192 513.034 255.716 501.995 262.698 487.918C271.594 469.997 286.855 447.796 293.156 439.486" fill="#EC4A0A"/>
<path d="M252.874 405.813C243.545 421.378 213.334 483.081 213.334 483.081C213.334 483.081 195.849 493.748 174.102 502.615C160.201 508.259 139.01 511.483 137.342 516.444C132.77 529.963 172.928 524.196 191.092 522.77C209.565 521.281 242.186 529.653 252.689 521.343C263.192 513.034 255.716 501.995 262.698 487.918C271.594 469.997 286.855 447.796 293.156 439.486" stroke="#101828" stroke-width="2.13" stroke-linecap="round" stroke-linejoin="round"/>
<path fill-rule="evenodd" clip-rule="evenodd" d="M325.469 285.694C301.003 261.137 304.463 225.169 308.602 221.697C352.282 185.233 377.18 228.208 388.672 227.526C416.844 230.999 437.294 243.525 439.642 263.307C441.681 280.671 439.642 323.894 406.094 319.305C385.397 312.174 327.754 325.444 310.023 310.871C300.447 302.996 306.563 245.82 300.076 235.339" fill="#101828"/>
<path d="M325.469 285.694C301.003 261.137 304.463 225.169 308.602 221.697C352.282 185.233 377.18 228.208 388.672 227.526C416.844 230.999 437.294 243.525 439.642 263.307C441.681 280.671 439.642 323.894 406.094 319.305C385.397 312.174 327.754 325.444 310.023 310.871C300.447 302.996 306.563 245.82 300.076 235.339" stroke="#101828" stroke-width="2.13" stroke-linecap="round" stroke-linejoin="round"/>
<path fill-rule="evenodd" clip-rule="evenodd" d="M481.716 487.298C481.716 487.298 481.221 487.608 480.233 488.104C474.055 491.081 449.404 500.321 423.084 474.337C419.81 471.113 416.535 467.33 413.261 462.989C379.466 417.72 356.854 410.092 356.854 410.092L312.556 328.235L310.517 324.514L281.603 290.593L317.499 266.47L403.747 284.268C403.747 284.268 423.702 267.028 445.635 294.81C450.639 301.197 455.767 309.879 460.833 321.724C471.336 346.467 472.263 401.844 473.19 442.153C473.869 468.136 481.716 487.298 481.716 487.298Z" fill="#FFF6ED" stroke="#101828" stroke-width="2.13" stroke-linecap="round" stroke-linejoin="round"/>
<path fill-rule="evenodd" clip-rule="evenodd" d="M369.025 260.517L381.196 283.772L402.14 294.562C402.14 294.562 393.985 313.848 376.995 320.049C360.005 326.25 351.602 321.103 344.745 318.685C337.825 316.266 331.091 305.476 331.091 305.476L338.814 292.95L331.276 283.027L369.025 260.517Z" fill="#EC4A0A" stroke="#101828" stroke-width="2.13" stroke-linecap="round" stroke-linejoin="round"/>
<path fill-rule="evenodd" clip-rule="evenodd" d="M364.453 243.525C362.167 236.642 366.121 234.533 361.117 230.192C352.22 222.379 340.049 219.34 328.743 223.247C316.016 227.588 301.929 230.936 300.694 244.455C300.2 249.664 306.625 263.617 308.417 269.012C314.842 288.236 334.365 298.965 352.035 292.949C363.341 289.105 370.569 282.965 373.041 271.307C374.338 264.858 366.739 250.471 364.453 243.525Z" fill="#EC4A0A" stroke="#101828" stroke-width="2.13" stroke-linecap="round" stroke-linejoin="round"/>
<path fill-rule="evenodd" clip-rule="evenodd" d="M322.627 265.602C323.924 272.361 321.762 279.679 325.654 280.423C330.782 281.353 334.303 270.377 334.056 268.951" fill="#EC4A0A"/>
<path d="M322.627 265.602C323.924 272.361 321.762 279.679 325.654 280.423C330.782 281.353 334.303 270.377 334.056 268.951" stroke="#101828" stroke-width="2.13" stroke-linecap="round" stroke-linejoin="round"/>
<path d="M348.39 266.346C349.316 272.237 346.104 275.71 340.976 276.95" stroke="#101828" stroke-width="2.13" stroke-linecap="round" stroke-linejoin="round"/>
<path fill-rule="evenodd" clip-rule="evenodd" d="M383.111 288.857L369.643 263.555C369.643 263.555 347.957 272.237 346.783 280.299C345.609 288.36 361.24 301.321 361.24 301.321L373.72 295.306" fill="#9C2A10"/>
<path fill-rule="evenodd" clip-rule="evenodd" d="M360.746 234.905C339.37 254.191 312.062 241.045 312.062 241.045C312.062 241.045 315.831 262.439 306.687 271.555C297.543 280.609 286.608 266.966 290.747 245.758C294.948 224.611 322.071 207.124 337.331 208.674C350.12 210.038 377.674 219.588 360.746 234.905Z" fill="#101828" stroke="#101828" stroke-width="2.13" stroke-linecap="round" stroke-linejoin="round"/>
<path fill-rule="evenodd" clip-rule="evenodd" d="M355.556 239.432C354.506 235.463 360.067 233.045 363.032 234.037C369.272 236.022 375.08 246.006 364.391 250.409" fill="#EC4A0A"/>
<path d="M355.556 239.432C354.506 235.463 360.067 233.045 363.032 234.037C369.272 236.022 375.08 246.006 364.391 250.409" stroke="#101828" stroke-width="2.13" stroke-linecap="round" stroke-linejoin="round"/>
<path d="M410.543 262.253C421.972 270.253 425.679 269.819 436.738 274.16L410.543 262.253Z" fill="#FFF6ED"/>
<path d="M410.543 262.253C421.972 270.253 425.679 269.819 436.738 274.16" stroke="#FFF6ED" stroke-width="2.13" stroke-linecap="round" stroke-linejoin="round"/>
<path fill-rule="evenodd" clip-rule="evenodd" d="M121.217 406.123C113.061 405.689 114.73 386.279 122.143 384.791C130.978 382.992 143.149 396.759 135.241 404.697C132.893 407.115 124.429 406.309 121.217 406.123Z" fill="#FD853A"/>
<path fill-rule="evenodd" clip-rule="evenodd" d="M332.141 293.198L344.868 293.818L356.545 289.539C356.545 289.539 352.097 301.941 345.857 307.15C339.678 312.36 324.789 312.298 324.789 312.298L332.141 293.198Z" fill="#101828" stroke="#101828" stroke-width="2.13" stroke-linecap="round" stroke-linejoin="round"/>
<path d="M361.982 240.859C362.044 241.169 362.106 241.417 362.168 241.727" stroke="#101828" stroke-width="2.13" stroke-linecap="round" stroke-linejoin="round"/>
<path fill-rule="evenodd" clip-rule="evenodd" d="M446.191 520.599C416.783 527.421 354.506 527.731 339.493 520.723C312.803 508.197 293.465 443.455 293.465 443.455L267.517 491.329L211.542 473.407L210.368 473.035C210.368 473.035 243.978 342.994 269.679 318.871C319.908 284.268 399.051 429.688 399.051 429.688L439.704 466.772L468.618 493.127C468.618 493.127 469.05 515.328 446.191 520.599Z" fill="#101828" stroke="#101828" stroke-width="2.13" stroke-linecap="round" stroke-linejoin="round"/>
<path fill-rule="evenodd" clip-rule="evenodd" d="M398.989 429.688C398.989 429.688 319.846 284.33 269.617 318.871C243.916 342.932 211.789 467.392 211.789 467.392C212.407 467.392 213.643 467.082 215.187 466.586C231.189 461.191 242.866 445.936 242.001 428.944C240.209 395.519 272.768 304.98 310.27 349.009C322.627 363.52 342.026 364.885 348.328 375.861C353.27 384.667 347.71 395.953 352.035 405.379C356.36 416.045 369.457 416.045 378.787 421.068C393.676 428.634 399.916 473.407 439.704 466.772L398.989 429.688Z" fill="#FFF6ED"/>
<path d="M331.029 258.16C336.589 255.68 339.926 254.811 340.791 247.742" stroke="#101828" stroke-width="2.13" stroke-linecap="round" stroke-linejoin="round"/>
<path d="M310.27 273.353C313.297 271.989 315.336 271.121 316.572 267.896" stroke="#101828" stroke-width="2.13" stroke-linecap="round" stroke-linejoin="round"/>
<path d="M295.751 239.494C289.882 245.448 285.063 263.245 289.758 271.183C291.55 274.16 296.122 274.408 297.358 276.95C302.609 287.554 289.758 291.957 308.046 299.833" stroke="#101828" stroke-width="2.13" stroke-linecap="round" stroke-linejoin="round"/>
<path d="M350.49 212.457C357.842 212.023 366.986 211.837 374.153 214.565C382.432 217.666 389.351 223.309 397.568 226.162C415.362 232.301 436.676 228.58 436.676 260.579" stroke="#101828" stroke-width="2.13" stroke-linecap="round" stroke-linejoin="round"/>
<path fill-rule="evenodd" clip-rule="evenodd" d="M400.843 348.017C399.978 341.878 398.063 323.398 395.468 300.019C394.047 286.748 396.086 268.764 396.086 268.764C396.086 268.764 393.552 265.85 391.823 268.082C390.093 270.315 389.413 277.632 389.228 277.632C386.262 277.012 369.025 240.734 364.515 243.029C361.24 244.641 374.709 265.478 374.709 265.478C374.709 265.478 360.005 241.789 357.41 243.897C354.444 246.316 369.519 268.144 369.519 268.144C369.519 268.144 355.618 245.261 351.973 246.998C348.39 248.734 364.453 271.741 364.021 271.927C362.723 272.485 349.502 251.463 346.845 252.765C344.312 254.005 357.348 273.973 361.24 284.64C366.739 299.523 358.769 396.325 381.32 414.619C393.8 424.727 412.273 423.983 424.073 409.844C435.812 395.705 449.836 358.187 449.836 358.187L416.968 322.654C416.968 322.592 401.461 352.358 400.843 348.017Z" fill="#EC4A0A" stroke="#101828" stroke-width="2.13" stroke-linecap="round" stroke-linejoin="round"/>
<path fill-rule="evenodd" clip-rule="evenodd" d="M429.571 284.454C429.571 284.454 390.587 263.803 396.518 307.957C401.893 342.684 399.113 351.552 399.113 351.552C399.113 351.552 400.781 349.257 416.412 358.745C432.043 368.233 443.72 385.411 443.72 385.411C443.72 385.411 458.609 343.986 452.246 327.367" fill="#FFF6ED"/>
<path d="M429.571 284.454C429.571 284.454 390.587 263.803 396.518 307.957C401.893 342.684 399.113 351.552 399.113 351.552C399.113 351.552 400.781 349.257 416.412 358.745C432.043 368.233 443.72 385.411 443.72 385.411C443.72 385.411 458.609 343.986 452.246 327.367" stroke="#101828" stroke-width="2.13" stroke-linecap="round" stroke-linejoin="round"/>
<path fill-rule="evenodd" clip-rule="evenodd" d="M281.603 290.407C281.603 290.407 254.913 315.336 277.896 327.739C300.879 340.141 361.302 324.948 361.302 324.948L375.203 324.328C375.203 324.328 376.006 327.987 379.343 340.389C382.617 352.73 384.223 367.551 388.363 373.814C392.564 380.078 393.305 373.938 393.305 373.938L390.896 350.932C390.896 350.932 395.468 377.597 397.754 376.357C400.101 375.117 398.248 349.939 398.248 349.939C398.248 349.939 405.785 375.179 407.268 374.869C408.751 374.559 406.774 348.265 406.774 348.265C406.774 348.265 412.396 381.504 413.385 374.248C414.373 366.993 414.126 348.079 411.346 326.499C409.987 316.018 399.792 297.352 379.404 294.376C367.357 292.639 281.603 290.407 281.603 290.407Z" fill="#EC4A0A" stroke="#101828" stroke-width="2.13" stroke-linecap="round" stroke-linejoin="round"/>
<path fill-rule="evenodd" clip-rule="evenodd" d="M302.053 272.609C296.678 304.422 318.672 297.476 318.672 297.476L332.697 293.26C332.697 293.26 316.819 285.508 315.707 283.958C314.471 282.221 306.254 269.385 305.328 267.4" fill="#101828"/>
<path d="M302.053 272.609C296.678 304.422 318.672 297.476 318.672 297.476L332.697 293.26C332.697 293.26 316.819 285.508 315.707 283.958C314.471 282.221 306.254 269.385 305.328 267.4" stroke="#101828" stroke-width="2.13" stroke-linecap="round" stroke-linejoin="round"/>
<path d="M341.347 334.436C339.308 338.467 348.575 365.071 366.059 365.071L341.347 334.436Z" fill="#FFF6ED"/>
<path d="M341.347 334.436C339.308 338.467 348.575 365.071 366.059 365.071" stroke="#101828" stroke-width="2.13" stroke-linecap="round" stroke-linejoin="round"/>
<path d="M282.468 463.795C283.642 462.369 293.527 443.455 293.527 443.455C293.527 443.455 298.037 460.385 301.621 468.384C310.394 488.166 322.132 507.825 338.814 516.94" fill="#FFF6ED"/>
<path d="M282.468 463.795C283.642 462.369 293.527 443.455 293.527 443.455C293.527 443.455 298.037 460.385 301.621 468.384C310.394 488.166 322.132 507.825 338.814 516.94" stroke="#FFF6ED" stroke-width="2.13" stroke-linecap="round" stroke-linejoin="round"/>
<path fill-rule="evenodd" clip-rule="evenodd" d="M453.419 349.009L447.797 398.992L425.494 409.038L440.569 380.512L443.905 385.473L453.419 349.009Z" fill="#101828" stroke="#101828" stroke-width="2.13" stroke-linecap="round" stroke-linejoin="round"/>
<path fill-rule="evenodd" clip-rule="evenodd" d="M395.838 421.006C399.051 429.688 409.801 438.804 413.323 445.998C429.695 479.237 429.51 507.701 473.869 489.903" fill="#FFF6ED"/>
<path d="M395.838 421.006C399.051 429.688 409.801 438.804 413.323 445.998C429.695 479.237 429.51 507.701 473.869 489.903" stroke="#101828" stroke-width="2.13" stroke-linecap="round" stroke-linejoin="round"/>
<path d="M416.844 436.696C420.922 444.633 424.691 452.881 428.212 461.129C433.402 473.407 439.766 493.685 458.177 487.174" stroke="#101828" stroke-width="2.13" stroke-linecap="round" stroke-linejoin="round"/>
<path fill-rule="evenodd" clip-rule="evenodd" d="M265.849 490.833C259.485 492.011 243.484 487.918 230.571 488.477C226.123 488.663 222.292 486.554 222.292 486.554C222.292 486.554 214.199 481.097 211.666 482.895C209.442 484.446 209.689 490.213 209.689 490.213C209.689 490.213 205.24 492.631 204.931 495.608C204.87 496.352 204.931 499.701 204.931 499.701C204.931 499.701 205.426 503.918 206.909 507.576C208.391 511.235 231.436 514.708 243.607 518.305C247.005 519.297 266.096 525.56 275.548 523.824" fill="#EC4A0A"/>
<path d="M265.849 490.833C259.485 492.011 243.484 487.918 230.571 488.477C226.123 488.663 222.292 486.554 222.292 486.554C222.292 486.554 214.199 481.097 211.666 482.895C209.442 484.446 209.689 490.213 209.689 490.213C209.689 490.213 205.24 492.631 204.931 495.608C204.87 496.352 204.931 499.701 204.931 499.701C204.931 499.701 205.426 503.918 206.909 507.576C208.391 511.235 231.436 514.708 243.607 518.305C247.005 519.297 266.096 525.56 275.548 523.824" stroke="#101828" stroke-width="2.13" stroke-linecap="round" stroke-linejoin="round"/>
<path d="M281.418 509.251C276.166 507.08 271.1 507.204 265.663 505.902C260.165 504.6 254.604 502.367 249.353 500.259" stroke="#101828" stroke-width="2.13" stroke-linecap="round" stroke-linejoin="round"/>
<path d="M211.419 497.344C209.874 500.631 208.947 502.801 207.897 506.274" stroke="#101828" stroke-width="2.13" stroke-linecap="round" stroke-linejoin="round"/>
<path d="M158.657 195.713L480.295 195.837" stroke="#101828" stroke-width="2.13" stroke-linecap="round" stroke-linejoin="round"/>
<path fill-rule="evenodd" clip-rule="evenodd" d="M350.181 235.774C350.181 229.448 355.433 224.301 361.92 224.301C368.407 224.301 373.659 229.448 373.659 235.774C373.659 242.099 368.407 247.246 361.92 247.246C355.433 247.184 350.181 242.099 350.181 235.774Z" fill="#FFF6ED" stroke="#101828" stroke-width="2.13" stroke-linecap="round" stroke-linejoin="round"/>
<path fill-rule="evenodd" clip-rule="evenodd" d="M289.573 249.292C289.573 249.292 282.468 225.727 306.872 212.209C335.663 196.209 360.932 229.696 360.932 229.696L356.607 236.58C356.607 236.58 324.418 211.837 297.975 230.378C285.372 239.184 289.573 249.292 289.573 249.292Z" fill="#FFF6ED" stroke="#101828" stroke-width="2.13" stroke-linecap="round" stroke-linejoin="round"/>
<path fill-rule="evenodd" clip-rule="evenodd" d="M355.618 234.967C355.618 231.371 358.46 228.394 361.92 228.394C365.38 228.394 368.222 231.309 368.222 234.967C368.222 238.564 365.38 241.541 361.92 241.541C358.46 241.541 355.618 238.626 355.618 234.967Z" fill="#FFF6ED" stroke="#101828" stroke-width="2.13" stroke-linecap="round" stroke-linejoin="round"/>
<path fill-rule="evenodd" clip-rule="evenodd" d="M165.206 249.23C154.517 236.146 139.813 228.89 129.125 214.875C103.979 181.822 115.038 142.072 128.445 106.849C153.467 155.095 165.206 203.341 165.206 249.23Z" fill="#054F31"/>
<path fill-rule="evenodd" clip-rule="evenodd" d="M165.823 247.308C151.181 182.566 176.326 151.56 197.641 95.5621C196.467 147.405 220.624 211.278 165.823 247.308Z" fill="#054F31"/>
<path fill-rule="evenodd" clip-rule="evenodd" d="M164.773 256.176C164.588 219.774 207.279 191.248 217.226 157.823C231.127 191.434 208.577 258.656 164.773 256.176Z" fill="#054F31"/>
<path fill-rule="evenodd" clip-rule="evenodd" d="M157.297 233.665H178.674C195.17 233.665 208.515 247.184 208.515 263.803C208.515 280.423 195.17 293.942 178.674 293.942H157.297C140.802 293.942 127.457 280.423 127.457 263.803C127.457 247.122 140.802 233.665 157.297 233.665Z" fill="#EC4A0A"/>
<path d="M118.931 282.841C159.583 203.093 151.49 389.938 132.646 296.05C125.541 260.703 187.015 237.138 209.998 243.339C230.386 248.796 198.197 277.012 182.999 296.794C181.022 299.337 176.882 297.91 176.944 294.314C171.94 260.827 219.203 251.711 243.113 256.672" stroke="#101828" stroke-width="2.13" stroke-linecap="round" stroke-linejoin="round"/>
<path d="M157.297 233.665H178.674C195.17 233.665 208.515 247.184 208.515 263.803C208.515 280.423 195.17 293.942 178.674 293.942H157.297C140.802 293.942 127.457 280.423 127.457 263.803C127.457 247.122 140.802 233.665 157.297 233.665Z" stroke="#101828" stroke-width="2.13" stroke-linecap="round" stroke-linejoin="round"/>
<path d="M516.808 234.223H568.458V258.098H516.808" stroke="#101828" stroke-width="2.13" stroke-linecap="round" stroke-linejoin="round"/>
<path d="M582.359 282.469H543.189V258.656H594.839V272.857" stroke="#101828" stroke-width="2.13" stroke-linecap="round" stroke-linejoin="round"/>
<path d="M102.249 443.269H50.5996V467.082H102.249V443.269Z" stroke="#101828" stroke-width="2.13" stroke-linecap="round" stroke-linejoin="round"/>
<path d="M45.4717 467.64H24.2186V491.515" stroke="#101828" stroke-width="2.13" stroke-linecap="round" stroke-linejoin="round"/>
<path d="M75.8685 491.515V479.609" stroke="#101828" stroke-width="2.13" stroke-linecap="round" stroke-linejoin="round"/>
<path d="M104.844 279.307H53.1944V303.12H104.844V279.307Z" stroke="#101828" stroke-width="2.13" stroke-linecap="round" stroke-linejoin="round"/>
<path d="M325.839 332.142C325.839 332.142 353.579 360.048 366.924 379.334L325.839 332.142Z" fill="#FFF6ED"/>
<path d="M325.839 332.142C325.839 332.142 353.579 360.048 366.924 379.334" stroke="#101828" stroke-width="2.13" stroke-linecap="round" stroke-linejoin="round"/>
<path fill-rule="evenodd" clip-rule="evenodd" d="M460.895 321.785C455.891 309.941 450.763 301.197 445.697 294.872C440.322 298.221 435.997 303.12 434.638 308.453C430.745 323.398 452.246 331.273 460.401 362.838C462.007 369.039 465.652 383.612 461.884 400.79C459.907 409.968 455.458 421.874 452.431 429.998C448.23 441.347 454.037 454.183 465.467 457.842C465.776 457.966 466.085 458.028 466.332 458.09C469.112 458.896 471.954 459.64 474.796 460.385C473.931 454.865 473.313 448.788 473.19 442.215C472.325 401.968 471.398 346.591 460.895 321.785Z" fill="#101828" stroke="#101828" stroke-width="2.13" stroke-linecap="round" stroke-linejoin="round"/>
<path d="M321.329 374.745C325.592 375.799 330.288 377.101 332.759 380.76C334.365 383.116 334.736 386.031 335.107 388.884C335.786 394.031 336.528 399.302 338.752 403.953" stroke="white" stroke-width="2.13" stroke-linecap="round" stroke-linejoin="round"/>
<path d="M326.025 387.457C328.619 390.372 329.608 394.403 330.04 398.248C330.473 402.092 330.535 406.123 331.647 409.844" stroke="white" stroke-width="2.13" stroke-linecap="round" stroke-linejoin="round"/>
<path d="M356.607 422.309C357.781 424.727 360.375 426.029 362.909 426.836C365.442 427.642 368.16 427.952 370.508 429.13C375.08 431.487 377.551 436.448 380.084 440.974C382.741 445.625 385.891 450.028 389.351 454.121" stroke="white" stroke-width="2.13" stroke-linecap="round" stroke-linejoin="round"/>
<path d="M376.81 447.92C380.516 455.299 386.139 461.687 392.873 466.4" stroke="white" stroke-width="2.13" stroke-linecap="round" stroke-linejoin="round"/>
<path d="M327.816 492.941C335.91 507.514 352.22 517.002 368.778 516.692" stroke="white" stroke-width="2.13" stroke-linecap="round" stroke-linejoin="round"/>
<path d="M354.197 504.972C360.684 508.693 368.345 510.243 375.697 509.313" stroke="white" stroke-width="2.13" stroke-linecap="round" stroke-linejoin="round"/>
<path d="M217.473 408.418C215.867 415.487 214.261 422.557 212.592 429.626" stroke="white" stroke-width="2.13" stroke-linecap="round" stroke-linejoin="round"/>
<path d="M227.049 400.418L222.663 415.983" stroke="white" stroke-width="2.13" stroke-linecap="round" stroke-linejoin="round"/>
<path d="M452.122 415.983C447.118 425.781 444.708 436.882 445.141 447.858C445.264 450.711 445.573 453.687 446.994 456.168C448.415 458.648 451.195 460.509 454.037 460.075C454.593 459.95 455.211 459.764 455.644 459.392C456.756 458.4 456.57 456.354 455.396 455.362C454.223 454.369 452.493 454.307 451.133 454.865C449.465 458.214 451.566 462.493 454.779 464.477C457.93 466.462 461.822 466.71 465.529 466.958" stroke="#101828" stroke-width="2.13" stroke-linecap="round" stroke-linejoin="round"/>
<path fill-rule="evenodd" clip-rule="evenodd" d="M259.918 288.609C257.941 287.244 256.581 285.012 256.273 282.593C255.778 278.562 259.238 274.036 263.254 274.78C267.146 275.524 268.876 280.175 269.123 284.144C269.247 285.632 269.123 287.306 268.135 288.423C266.281 290.407 263.007 288.981 260.35 289.539" fill="#101828"/>
<path d="M259.918 288.609C257.941 287.244 256.581 285.012 256.273 282.593C255.778 278.562 259.238 274.036 263.254 274.78C267.146 275.524 268.876 280.175 269.123 284.144C269.247 285.632 269.123 287.306 268.135 288.423C266.281 290.407 263.007 288.981 260.35 289.539" stroke="#101828" stroke-width="2.13" stroke-linecap="round" stroke-linejoin="round"/>
<path d="M235.823 430.246C236.44 437.626 232.733 445.253 226.617 449.284" stroke="#101828" stroke-width="2.13" stroke-linecap="round" stroke-linejoin="round"/>
<path d="M227.914 435.517C228.347 437.502 227.729 439.672 226.308 441.099" stroke="#101828" stroke-width="2.13" stroke-linecap="round" stroke-linejoin="round"/>
<path d="M161.869 204.023C161.251 215.185 162.178 225.913 163.785 234.471" stroke="white" stroke-width="2.13" stroke-linecap="round" stroke-linejoin="round"/>
<path d="M129.001 134.506C129.125 147.219 131.04 159.808 133.017 172.334C134.129 179.404 135.241 186.535 137.404 193.357C139.319 199.434 142.037 205.139 144.756 210.906C148.215 218.162 151.675 225.479 156.803 231.619" stroke="white" stroke-width="2.13" stroke-linecap="round" stroke-linejoin="round"/>
<path d="M193.564 126.693C191.71 162.66 185.099 198.38 173.917 232.549" stroke="white" stroke-width="2.13" stroke-linecap="round" stroke-linejoin="round"/>
<path d="M217.473 159.063C215.99 186.659 204.314 213.635 185.285 233.479" stroke="white" stroke-width="2.13" stroke-linecap="round" stroke-linejoin="round"/>
<path d="M119.116 148.583C121.155 149.265 122.823 150.878 123.688 152.924C124.429 154.661 124.615 156.831 126.097 158.009C127.024 158.691 128.322 158.815 129.434 159.125C130.546 159.436 131.781 160.304 131.781 161.482C135.056 159.312 138.701 156.583 139.01 152.614C139.133 151.436 138.948 150.072 139.69 149.141C140.369 148.335 141.481 148.149 142.47 147.901C143.458 147.653 144.57 147.033 144.694 145.979" stroke="white" stroke-width="2.13" stroke-linecap="round" stroke-linejoin="round"/>
<path d="M116.089 170.102C119.054 171.156 121.587 173.389 123.008 176.179C123.255 176.613 123.441 177.109 123.811 177.481C125.356 179.156 128.322 177.915 130.299 179.032C132.029 180.024 132.77 182.566 134.685 182.752C136.044 180.272 139.628 179.404 140.307 176.675C140.431 176.241 140.431 175.745 140.678 175.373C141.543 173.823 143.952 174.815 145.559 174.257C147.783 173.451 148.092 169.916 150.378 169.234" stroke="white" stroke-width="2.13" stroke-linecap="round" stroke-linejoin="round"/>
<path d="M154.27 185.481C151.799 187.403 150.192 190.318 149.884 193.481C149.822 194.101 149.822 194.783 149.451 195.279C148.957 196.023 147.968 196.209 147.103 196.519C144.261 197.387 141.605 199.744 140.802 202.597C140.616 201.79 139.751 201.294 138.948 201.17C138.145 201.046 137.342 201.232 136.477 201.232C134.994 201.294 133.511 200.86 132.214 199.992C131.164 199.31 130.113 198.318 128.939 198.69C128.507 198.814 128.136 199.124 127.766 199.372C126.53 200.116 124.985 200.178 123.564 199.744C122.205 199.31 121.031 198.38 119.981 197.387" stroke="white" stroke-width="2.13" stroke-linecap="round" stroke-linejoin="round"/>
<path d="M159.522 205.449C158.657 208.984 157.421 212.891 154.208 214.503C153.529 214.875 152.726 215.061 152.108 215.495C150.872 216.239 148.524 218.472 148.463 219.96C147.165 220.084 146.115 219.03 144.941 218.534C142.964 217.728 141.172 219.34 139.01 219.464C136.848 219.65 134.253 218.348 132.152 217.79" stroke="white" stroke-width="2.13" stroke-linecap="round" stroke-linejoin="round"/>
<path d="M145.929 228.084C147.474 228.89 149.266 229.51 150.996 229.262C151.737 229.138 152.417 228.89 153.158 228.952C154.394 229.076 155.382 230.068 156.185 231.06C156.309 229.696 156.432 228.146 157.545 227.34C158.101 226.906 158.904 226.72 159.46 226.285C160.078 225.851 160.448 224.921 159.892 224.363" stroke="white" stroke-width="2.13" stroke-linecap="round" stroke-linejoin="round"/>
<path d="M185.903 129.421C187.385 130.537 188.312 132.398 188.312 134.258C188.312 134.692 188.25 135.188 188.436 135.623C188.93 136.925 190.969 136.925 191.587 138.165C191.957 138.971 191.71 140.088 192.39 140.646C192.76 139.839 193.131 139.033 193.934 138.661C194.799 138.227 195.788 138.599 196.776 138.413C198.012 138.227 199 137.111 199.062 135.871" stroke="white" stroke-width="2.13" stroke-linecap="round" stroke-linejoin="round"/>
<path d="M176.821 152.676C177.315 154.413 178.921 155.777 180.713 155.901C181.701 155.963 182.752 155.653 183.678 156.025C184.729 156.459 185.347 157.575 185.655 158.753C185.964 159.932 186.088 161.048 186.582 162.102C187.076 163.156 188.806 165.265 189.98 165.017C190.845 164.831 190.845 162.784 191.71 162.536C192.946 162.164 194.429 163.094 195.541 162.412C196.22 161.978 196.467 161.11 197.023 160.676C198.135 159.808 200.298 160.18 200.669 158.815" stroke="white" stroke-width="2.13" stroke-linecap="round" stroke-linejoin="round"/>
<path d="M168.048 180.706C170.457 180.768 172.805 182.256 173.917 184.427C174.905 186.287 175.091 188.83 176.944 189.884C177.747 190.38 178.798 190.442 179.724 190.69C181.887 191.31 183.617 193.109 184.111 195.279C185.038 193.543 187.324 193.295 189.301 193.295C191.278 193.295 193.44 193.357 194.737 191.868C195.108 191.434 198.753 186.535 202.028 186.101" stroke="white" stroke-width="2.13" stroke-linecap="round" stroke-linejoin="round"/>
<path d="M163.599 204.209C164.588 204.271 165.267 205.201 165.638 206.131C166.009 207.061 166.318 208.054 167.183 208.612C168.356 209.356 169.901 208.86 171.26 209.108C174.658 209.79 175.214 214.813 178.18 216.673" stroke="white" stroke-width="2.13" stroke-linecap="round" stroke-linejoin="round"/>
<path d="M205.92 184.117C206.414 185.295 206.661 186.597 206.661 187.899C206.661 189.202 206.538 190.628 207.341 191.62C207.835 192.24 208.638 192.55 209.009 193.233C209.133 193.419 209.194 193.667 209.318 193.853C209.627 194.225 210.183 194.163 210.677 194.101C211.851 193.915 213.087 193.915 214.261 193.915C215.187 193.977 216.176 194.039 217.041 193.791C217.906 193.543 218.832 192.799 218.894 191.868" stroke="white" stroke-width="2.13" stroke-linecap="round" stroke-linejoin="round"/>
<path d="M194.552 201.046C196.344 201.356 197.95 202.597 198.691 204.271C199.186 205.387 199.371 206.751 200.174 207.682C201.472 209.108 203.696 208.86 205.611 209.232C207.341 209.542 208.947 210.472 210.739 210.596C212.716 210.72 214.755 209.79 215.929 208.178" stroke="white" stroke-width="2.13" stroke-linecap="round" stroke-linejoin="round"/>
<path d="M182.257 221.2C185.038 220.952 187.818 222.565 189.115 225.045C189.362 225.541 189.548 226.037 189.98 226.471C191.154 227.65 193.131 226.782 194.737 227.03C195.788 227.216 196.653 227.836 197.641 228.27C200.298 229.448 203.634 228.766 205.673 226.658" stroke="white" stroke-width="2.13" stroke-linecap="round" stroke-linejoin="round"/>
<path d="M202.028 186.039C190.104 198.132 178.18 216.673 173.423 234.223" stroke="white" stroke-width="2.13" stroke-linecap="round" stroke-linejoin="round"/>
<path d="M291.241 164.396L297.296 183.931" stroke="#101828" stroke-width="2.13" stroke-linecap="round" stroke-linejoin="round"/>
<path d="M345.362 153.234L340.42 186.163" stroke="#101828" stroke-width="2.13" stroke-linecap="round" stroke-linejoin="round"/>
<path d="M361.92 173.326L357.534 188.396" stroke="#101828" stroke-width="2.13" stroke-linecap="round" stroke-linejoin="round"/>
<path d="M409.986 140.956L385.706 189.512" stroke="#101828" stroke-width="2.13" stroke-linecap="round" stroke-linejoin="round"/>
<path d="M429.324 181.698L402.264 209.046" stroke="#101828" stroke-width="2.13" stroke-linecap="round" stroke-linejoin="round"/>
<path d="M424.382 217.976L444.77 207.93" stroke="#101828" stroke-width="2.13" stroke-linecap="round" stroke-linejoin="round"/>
<path d="M389.351 516.94L458.177 516.692" stroke="white" stroke-width="2.13" stroke-linecap="round" stroke-linejoin="round"/>
<path d="M224.825 106.849H493.145V444.385" stroke="#101828" stroke-width="2.13" stroke-linecap="round" stroke-linejoin="round"/>
<path d="M149.08 319.677V492.941" stroke="#101828" stroke-width="2.13" stroke-linecap="round" stroke-linejoin="round"/>
<path d="M165.514 33.6732C168.483 33.6732 170.889 31.23 170.889 28.2161C170.889 25.2022 168.483 22.7589 165.514 22.7589C162.546 22.7589 160.139 25.2022 160.139 28.2161C160.139 31.23 162.546 33.6732 165.514 33.6732Z" fill="#101828" stroke="#101828" stroke-width="2.13" stroke-linecap="round" stroke-linejoin="round"/>
<path d="M192.328 364.822L200.051 330.219C200.854 331.894 202.337 333.816 204.931 336.545L205.796 337.413C209.38 340.947 215.373 346.963 211.48 352.916C211.171 353.35 211.295 353.97 211.728 354.218C211.913 354.342 212.098 354.404 212.222 354.404C212.531 354.404 212.84 354.28 213.025 353.97C217.782 346.715 210.801 339.769 207.094 336.048L206.229 335.18C201.472 330.281 200.977 328.235 200.854 326.188L202.893 317.134C203.696 318.809 205.179 320.731 207.835 323.46L208.762 324.39C212.345 327.925 218.338 333.94 214.446 339.893C214.137 340.327 214.261 340.947 214.693 341.196C214.878 341.32 215.064 341.382 215.187 341.382C215.496 341.382 215.805 341.258 215.99 340.947C220.748 333.692 213.766 326.747 210.059 323.088L209.194 322.22C204.375 317.259 203.943 315.274 203.819 313.166C203.819 312.67 203.449 312.297 202.831 312.235C202.337 312.235 201.904 312.67 201.904 313.228C201.842 313.29 201.842 313.352 201.781 313.476L191.03 362.156C188.868 359.613 184.79 358.373 180.466 359.241C174.72 360.42 170.704 364.885 171.569 369.225C172.434 373.628 177.809 376.233 183.555 375.055C189.301 373.938 193.316 369.411 192.451 365.071C192.39 365.009 192.39 364.947 192.328 364.822Z" fill="#101828" stroke="#101828" stroke-width="2.13" stroke-linecap="round" stroke-linejoin="round"/>
<path d="M136.353 241.727L165.267 27.968L199.742 242.905" stroke="#101828" stroke-width="2.13" stroke-linecap="round" stroke-linejoin="round"/>
</svg>
