<svg width="624" height="739" viewBox="0 0 624 739" fill="none" xmlns="http://www.w3.org/2000/svg">
<path fill-rule="evenodd" clip-rule="evenodd" d="M478.611 591.381C475.089 627.156 410.431 651.549 324.191 653.627C324.101 653.627 323.92 653.627 323.83 653.627C303.241 654.078 281.387 653.356 258.811 651.187C212.937 646.761 171.036 637.094 137.262 624.265C123.536 619.116 111.254 613.424 100.508 607.371C70.1661 590.206 52.8278 570.15 54.7242 550.185C58.6975 509.44 141.958 483.512 246.168 488.391C255.47 488.842 264.952 489.475 274.524 490.468C321.301 494.986 364.015 505.014 398.06 518.113C449.262 537.718 481.23 564.639 478.611 591.381Z" fill="#101828" stroke="#101828" stroke-width="2.13" stroke-linecap="round" stroke-linejoin="round"/>
<path d="M499.471 563.646C510.488 577.197 511.572 589.032 510.94 604.209C508.863 652.994 442.67 663.564 405.735 674.496" stroke="#101828" stroke-width="2.13" stroke-linecap="round" stroke-linejoin="round"/>
<path d="M130.941 470.232C77.6614 479.176 13.6359 514.138 33.0512 577.739" stroke="#101828" stroke-width="2.13" stroke-linecap="round" stroke-linejoin="round"/>
<path d="M367.447 605.022C370.246 601.137 369.794 603.667 366.544 604.39C354.894 607.01 343.245 610.081 331.686 613.153C317.057 617.038 304.595 626.524 291.14 633.39" stroke="#101828" stroke-width="2.13" stroke-linecap="round" stroke-linejoin="round"/>
<path fill-rule="evenodd" clip-rule="evenodd" d="M438.967 468.244C492.608 411.057 354.443 142.65 268.835 194.326C239.215 208.149 227.114 231.547 215.285 259.102C186.568 364.531 60.6842 329.298 56.8915 443.129C49.7575 609.268 381.534 590.477 438.967 468.244Z" fill="#FD853A"/>
<path fill-rule="evenodd" clip-rule="evenodd" d="M128.683 273.466C148.369 270.304 167.153 268.317 161.734 296.323C161.012 300.117 155.594 323.787 136.54 326.407C97.8894 332.64 89.8524 278.796 128.683 273.466Z" fill="#FD853A"/>
<path fill-rule="evenodd" clip-rule="evenodd" d="M187.019 267.323C178.711 273.195 162.908 265.064 168.146 254.133C172.21 231.276 217 257.024 187.019 267.323Z" fill="#FD853A"/>
<path d="M194.695 397.325C197.495 403.92 200.384 411.148 198.578 418.104C197.133 423.886 192.709 428.494 188.284 432.469C186.026 434.456 183.678 436.534 180.788 437.347C177.899 438.251 174.377 437.708 172.48 435.36C170.403 432.83 170.945 428.945 172.48 426.054C173.654 423.796 175.641 421.808 178.079 421.085C182.324 419.821 186.839 422.983 188.555 427.048C190.27 431.113 189.819 435.721 188.916 440.057C185.213 457.764 175.19 473.303 165.346 488.481" stroke="#101828" stroke-width="2.13" stroke-linecap="round" stroke-linejoin="round"/>
<path fill-rule="evenodd" clip-rule="evenodd" d="M143.132 376.818C153.607 378.082 166.791 360.827 151.349 359.111C146.563 360.827 136.72 374.649 141.506 376.456" fill="#FFF6ED"/>
<path fill-rule="evenodd" clip-rule="evenodd" d="M246.801 260.457C235.513 262.806 230.997 273.014 236.506 283.675C238.041 286.656 247.071 299.665 255.199 298.22C259.082 297.497 271.454 299.214 269.015 269.672C267.48 258.108 261.881 257.385 246.801 260.457Z" fill="#EC4A0A" stroke="#101828" stroke-width="2.13" stroke-linecap="round" stroke-linejoin="round"/>
<path fill-rule="evenodd" clip-rule="evenodd" d="M417.836 431.565C404.2 477.278 335.569 582.437 330.693 599.873L329.97 596.892C314.529 602.312 225.94 603.125 196.953 575.209C194.063 572.409 191.806 569.427 190.18 565.994L214.201 506.188C212.756 508.266 198.578 495.708 215.104 461.017C219.619 451.531 229.011 425.874 229.011 425.874C229.733 421.989 231.81 406.902 234.339 388.472C233.977 387.839 233.887 387.478 233.887 387.478C225.94 382.058 196.14 384.226 189.367 360.917C188.374 357.394 187.832 353.238 188.013 348.36C188.193 342.939 191.535 340.41 195.327 339.326C199.03 338.242 203.184 338.422 205.261 338.603C216.458 339.235 227.385 343.391 237.77 347.728C238.493 347.999 239.125 348.36 239.847 348.631C243.369 323.245 246.71 301.201 247.794 300.027C249.6 298.039 251.316 296.052 253.032 294.155C258.45 288.192 263.958 283.675 273.26 287.108C279.31 289.276 285.18 291.625 290.779 294.335C302.608 300.027 313.355 307.254 321.933 318.005C330.422 328.575 338.098 339.958 343.877 352.154C349.115 363.176 352.546 375.192 354.714 387.117C356.249 395.248 357.333 403.74 356.791 412.051C356.7 414.129 356.43 416.117 356.068 418.194C354.443 427.319 352.185 436.263 349.657 445.117L417.836 431.565Z" fill="#EC4A0A" stroke="#101828" stroke-width="2.13" stroke-linecap="round" stroke-linejoin="round"/>
<path fill-rule="evenodd" clip-rule="evenodd" d="M196.953 575.209C194.063 572.409 191.806 569.428 190.18 565.995L214.201 506.188C212.756 508.266 198.578 495.708 215.104 461.017C219.619 451.531 229.011 425.874 229.011 425.874C229.733 421.989 231.81 406.902 234.339 388.472C233.977 387.839 233.887 387.478 233.887 387.478C225.94 382.058 196.14 384.226 189.367 360.917C195.959 362.092 203.003 364.26 210.498 366.519C225.489 371.036 234.519 373.746 239.305 382.148C244.904 391.905 237.951 397.325 242.556 420.363C243.911 427.319 245.265 430.21 246.981 440.419C248.968 452.163 249.871 458.126 248.155 462.553C243.821 473.484 231.088 474.568 231.268 481.434C231.359 485.5 235.874 487.126 240.479 491.462C240.479 491.462 252.761 502.845 253.754 523.534C255.018 549.643 220.522 579.817 196.953 575.209Z" fill="#FFF6ED"/>
<path fill-rule="evenodd" clip-rule="evenodd" d="M356.881 412.142C351.011 417.11 344.6 420.995 337.646 423.163C318.773 429.126 299.267 421.628 282.561 415.123C269.377 409.973 253.483 403.92 249.419 390.459C247.162 382.961 250.052 378.263 245.717 372.752C240.75 366.609 234.158 368.958 222.419 363.899C210.86 358.93 204.087 350.89 201.558 347.818C199.572 345.469 197.404 342.488 195.418 339.235C199.12 338.151 203.274 338.332 205.351 338.513C216.549 339.145 227.476 343.301 237.86 347.637C238.583 347.908 239.215 348.27 239.937 348.541C243.459 323.154 246.801 301.111 247.884 299.936C249.69 297.949 251.406 295.961 253.122 294.064C265.223 293.251 278.136 293.341 290.959 294.245C302.789 299.936 313.535 307.164 322.114 317.915C330.603 328.485 338.278 339.868 344.058 352.064C349.296 363.086 352.727 375.101 354.894 387.026C356.339 395.338 357.513 403.83 356.881 412.142Z" fill="#101828" stroke="#101828" stroke-width="2.13" stroke-linecap="round" stroke-linejoin="round"/>
<path fill-rule="evenodd" clip-rule="evenodd" d="M214.562 573.403C218.265 570.06 221.877 566.537 225.218 562.833C197.133 545.848 196.863 532.116 196.863 532.116L137.262 624.175C166.34 635.197 201.468 643.87 239.847 648.929C233.616 632.667 224.044 617.219 211.853 604.119C204.629 595.085 207.338 580.63 214.562 573.403Z" fill="#FFF6ED"/>
<path fill-rule="evenodd" clip-rule="evenodd" d="M251.858 576.022C240.931 571.505 232.262 567.079 225.218 562.833C221.967 566.537 218.355 570.06 214.562 573.403C207.338 580.63 204.629 595.085 211.853 604.119C224.134 617.219 233.707 632.667 239.847 648.929C246.078 649.742 252.399 650.465 258.811 651.097C281.297 653.265 303.15 654.078 323.83 653.536C323.92 653.536 324.101 653.536 324.191 653.536L349.566 582.437C349.566 582.527 316.967 602.945 251.858 576.022Z" fill="#9C2A10"/>
<path fill-rule="evenodd" clip-rule="evenodd" d="M361.577 381.245C364.105 374.469 360.493 363.809 358.507 357.033C347.399 319.812 315.973 301.111 284.457 282.862C273.531 276.538 267.39 275.454 257.547 293.342C252.309 302.827 248.878 326.136 256.012 332.64C277.233 351.703 303.511 366.699 317.96 390.73C320.127 394.344 331.144 426.867 331.144 426.867C331.144 426.867 338.188 418.646 346.857 411.148C354.082 404.824 356.159 404.372 357.242 402.836L361.577 381.245Z" fill="#FDA29B"/>
<path d="M458.112 240.13C455.493 238.775 454.409 235.613 455.764 232.902L455.944 232.631C457.299 230.011 460.46 228.927 463.169 230.282C465.788 231.638 466.871 234.8 465.517 237.51L465.336 237.781C463.891 240.491 460.731 241.485 458.112 240.13ZM462.085 232.451C460.64 231.728 458.924 232.27 458.112 233.715L457.931 233.986C457.209 235.432 457.751 237.148 459.195 237.962C460.64 238.684 462.356 238.142 463.169 236.697L463.349 236.426C464.072 234.89 463.53 233.173 462.085 232.451Z" fill="#101828" stroke="#101828" stroke-width="2.13" stroke-linecap="round" stroke-linejoin="round"/>
<path d="M452.423 251.242C449.804 249.887 448.72 246.725 450.075 244.015L450.255 243.744C451.61 241.124 454.77 240.04 457.48 241.395C460.189 242.75 461.182 245.912 459.828 248.622L459.647 248.893C458.202 251.603 455.041 252.597 452.423 251.242ZM456.306 243.563C454.861 242.84 453.145 243.382 452.332 244.828L452.152 245.099C451.429 246.544 451.971 248.261 453.416 249.074C454.861 249.887 456.577 249.254 457.389 247.809L457.57 247.538C458.383 246.002 457.841 244.286 456.306 243.563Z" fill="#101828" stroke="#101828" stroke-width="2.13" stroke-linecap="round" stroke-linejoin="round"/>
<path d="M462.266 226.578C458.383 224.591 456.938 219.803 458.834 216.008L465.426 203.27C467.413 199.385 472.109 197.94 475.992 199.837C479.875 201.825 481.32 206.613 479.423 210.407L472.831 223.145C470.845 227.03 466.058 228.566 462.266 226.578ZM474.908 202.005C472.199 200.65 468.948 201.644 467.594 204.354L461.001 217.092C459.647 219.803 460.64 223.055 463.349 224.41C466.058 225.765 469.309 224.772 470.664 222.061L477.256 209.323C478.611 206.613 477.617 203.36 474.908 202.005Z" fill="#101828" stroke="#101828" stroke-width="2.13" stroke-linecap="round" stroke-linejoin="round"/>
<path fill-rule="evenodd" clip-rule="evenodd" d="M507.689 150.781L372.955 412.503C368.891 420.453 359.139 423.525 351.192 419.459L233.345 358.749C225.399 354.684 222.328 344.927 226.392 336.977L302.789 188.454C305.498 188.273 308.207 188.093 311.007 187.912L232.984 339.597C230.636 344.204 232.442 349.896 237.048 352.335L353.991 412.503C355.346 413.226 356.791 413.587 358.326 413.587C361.848 413.587 365.099 411.6 366.724 408.438L500.916 147.71C501.367 146.806 501.638 145.903 501.819 144.999C501.909 144.999 501.999 144.909 502.09 144.909C504.618 143.825 507.056 142.651 509.495 141.566C509.766 144.548 509.224 147.8 507.689 150.781Z" fill="#101828" stroke="#101828" stroke-width="2.13" stroke-linecap="round" stroke-linejoin="round"/>
<path fill-rule="evenodd" clip-rule="evenodd" d="M501.728 144.999C501.548 145.903 501.277 146.806 500.825 147.71L366.724 408.437C365.099 411.599 361.848 413.587 358.326 413.587C356.791 413.587 355.346 413.226 353.991 412.503L237.048 352.335C232.442 349.986 230.636 344.294 232.984 339.597L311.007 188.002C329.158 186.737 348.934 184.479 369.614 181.136C421.448 172.644 468.677 159.364 501.728 144.999Z" fill="#FFF6ED"/>
<path fill-rule="evenodd" clip-rule="evenodd" d="M426.867 92.5105C426.867 92.5105 424.338 97.4793 424.157 101.635C424.157 101.906 424.157 102.087 424.157 102.358C424.248 106.152 426.596 109.495 429.937 111.211L438.606 115.638C441.044 116.903 443.844 117.174 446.372 116.361C447.456 115.999 448.54 115.548 449.533 114.915C453.055 112.566 455.403 107.688 455.403 107.688L426.867 92.5105Z" fill="#101828" stroke="#101828" stroke-width="2.13" stroke-linecap="round" stroke-linejoin="round"/>
<path fill-rule="evenodd" clip-rule="evenodd" d="M434.813 367.874C435.716 372.752 426.144 416.117 413.863 442.948L278.678 468.605C278.678 468.605 282.2 455.325 289.514 440.599C296.016 427.5 305.408 413.316 317.96 406.269C354.985 385.49 383.25 395.338 383.25 395.338C383.25 395.338 385.056 379.257 396.524 358.84C396.524 358.84 396.615 355.407 397.157 350.257C398.24 339.958 401.13 323.154 408.806 315.475C425.241 299.033 438.245 302.285 437.342 304.815C438.064 308.248 435.626 365.435 434.813 367.874Z" fill="#EC4A0A" stroke="#101828" stroke-width="2.13" stroke-linecap="round" stroke-linejoin="round"/>
<path fill-rule="evenodd" clip-rule="evenodd" d="M225.308 284.488C213.84 286.927 209.234 297.226 214.833 308.158C216.368 311.139 225.579 324.51 233.887 322.974C237.77 322.251 250.413 323.967 247.975 293.883C246.349 282.139 240.57 281.326 225.308 284.488Z" fill="#EC4A0A" stroke="#101828" stroke-width="2.13" stroke-linecap="round" stroke-linejoin="round"/>
<path d="M323.83 653.627C303.241 654.078 281.387 653.356 258.811 651.187C212.937 646.761 171.036 637.094 137.262 624.265" stroke="#101828" stroke-width="2.13" stroke-linecap="round" stroke-linejoin="round"/>
<path d="M198.94 538.44C198.94 538.44 203.003 551.54 225.218 562.833C247.433 574.125 270.46 589.393 302.879 589.393" stroke="#101828" stroke-width="2.13" stroke-linecap="round" stroke-linejoin="round"/>
<path d="M424.97 307.887C424.97 307.887 421.629 328.304 424.97 331.556C428.311 334.899 433.188 334.899 433.188 334.899" stroke="#101828" stroke-width="2.13" stroke-linecap="round" stroke-linejoin="round"/>
<path fill-rule="evenodd" clip-rule="evenodd" d="M384.243 410.877C370.878 417.201 364.105 406.631 346.857 411.148C325.636 416.84 323.83 436.173 305.588 440.78C301.344 441.864 296.016 442.226 289.424 440.6C295.926 427.5 305.317 413.316 317.87 406.27C354.894 385.491 383.159 395.338 383.159 395.338C383.159 395.338 384.966 379.257 396.434 358.84C396.434 358.84 396.524 355.407 397.066 350.257C401.04 355.949 403.839 362.454 404.652 369.5C406.368 385.491 398.06 404.282 384.243 410.877Z" fill="#FFF6ED"/>
<path fill-rule="evenodd" clip-rule="evenodd" d="M266.848 479.537C265.674 472.309 281.477 464.088 294.752 457.222C324.101 442.045 355.797 436.624 360.132 435.902C378.102 433.011 390.023 433.191 401.04 423.073C407.722 417.02 415.398 405.547 417.746 406.36C421.539 407.715 419.01 432.198 411.696 447.736C394.899 483.602 340.988 489.836 331.235 491.01C303.06 494.534 268.474 489.745 266.848 479.537Z" fill="#9C2A10"/>
<path d="M485.925 271.659L458.653 289.818" stroke="#101828" stroke-width="2.13" stroke-linecap="round" stroke-linejoin="round"/>
<path d="M487.551 300.027L459.195 303.279" stroke="#101828" stroke-width="2.13" stroke-linecap="round" stroke-linejoin="round"/>
<path d="M457.028 317.192L483.216 345.559" stroke="#101828" stroke-width="2.13" stroke-linecap="round" stroke-linejoin="round"/>
<path d="M458.112 346.101L470.935 361.64" stroke="#101828" stroke-width="2.13" stroke-linecap="round" stroke-linejoin="round"/>
<path d="M199.843 583.069C196.592 590.658 194.424 599.331 197.224 607.01C199.301 612.882 203.997 617.399 207.97 622.278C211.943 627.156 215.375 633.119 214.381 639.352" stroke="#101828" stroke-width="2.13" stroke-linecap="round" stroke-linejoin="round"/>
<path d="M214.111 618.303C216.729 623.723 222.328 627.156 224.766 632.577C225.94 635.197 226.302 638.178 226.302 641.069" stroke="#101828" stroke-width="2.13" stroke-linecap="round" stroke-linejoin="round"/>
<path d="M242.737 519.016C242.737 523.172 242.737 527.418 242.014 531.574C241.292 535.73 239.757 539.795 236.957 542.867C233.977 546.209 229.823 548.287 225.85 550.275" stroke="#101828" stroke-width="2.13" stroke-linecap="round" stroke-linejoin="round"/>
<path d="M245.988 539.615C244.814 543.228 242.376 546.481 239.215 548.649" stroke="#101828" stroke-width="2.13" stroke-linecap="round" stroke-linejoin="round"/>
<path d="M222.328 309.151C221.877 305.176 221.425 301.021 222.96 297.407C224.495 293.793 228.83 290.902 232.533 292.528" stroke="#101828" stroke-width="2.13" stroke-linecap="round" stroke-linejoin="round"/>
<path d="M400.678 430.933C381.624 462.643 363.564 495.076 346.586 527.96" stroke="#101828" stroke-width="2.13" stroke-linecap="round" stroke-linejoin="round"/>
<path d="M375.393 494.624L339.272 564.097" stroke="#101828" stroke-width="2.13" stroke-linecap="round" stroke-linejoin="round"/>
<path d="M420.365 385.762C414.676 410.064 416.211 426.958 394.809 460.656" stroke="#101828" stroke-width="2.13" stroke-linecap="round" stroke-linejoin="round"/>
<path fill-rule="evenodd" clip-rule="evenodd" d="M549.499 108.14C548.145 118.529 533.335 130.183 509.404 141.476C507.056 142.56 504.528 143.735 501.999 144.819C501.909 144.819 501.819 144.909 501.728 144.909C468.677 159.273 421.358 172.644 369.614 181.046C348.934 184.389 329.158 186.647 311.007 187.912C308.207 188.093 305.498 188.273 302.789 188.454C280.845 189.628 261.43 189.357 245.536 187.551C216.729 184.389 199.843 176.438 201.378 164.423C202.913 152.498 222.509 138.675 253.212 125.847C278.949 115.096 312.452 104.978 349.747 97.2986C352.727 96.6662 355.617 96.1241 358.597 95.4917C366.002 94.0462 373.587 92.6911 381.263 91.4263C389.571 90.0712 397.698 88.8967 405.555 87.903C409.889 87.3609 414.134 86.9092 418.288 86.4575C447.095 83.3858 472.922 82.5728 493.962 83.9279C529.632 86.2768 551.215 94.6786 549.499 108.14Z" fill="#101828" stroke="#101828" stroke-width="2.13" stroke-linecap="round" stroke-linejoin="round"/>
<path d="M309.742 169.934C307.033 170.115 304.415 170.295 301.796 170.386C293.488 170.837 285.451 171.108 277.955 171.108C266.758 171.108 256.553 170.566 247.523 169.573" fill="#FFF6ED"/>
<path d="M309.742 169.934C307.033 170.115 304.415 170.295 301.796 170.386C293.488 170.837 285.451 171.108 277.955 171.108C266.758 171.108 256.553 170.566 247.523 169.573" stroke="#FFF6ED" stroke-width="2.13" stroke-linecap="round" stroke-linejoin="round"/>
<path d="M501.638 125.214C499.381 126.298 497.123 127.292 494.775 128.376L494.324 128.557" fill="#FFF6ED"/>
<path d="M501.638 125.214C499.381 126.298 497.123 127.292 494.775 128.376L494.324 128.557" stroke="#FFF6ED" stroke-width="2.13" stroke-linecap="round" stroke-linejoin="round"/>
<path d="M260.166 142.56C285.27 132.08 318.321 122.323 353.359 115.006C356.249 114.464 359.048 113.831 362.028 113.289C369.253 111.934 376.658 110.579 384.153 109.314C392.1 108.049 400.046 106.875 407.903 105.881C411.876 105.339 415.759 104.887 419.462 104.526L420.365 104.436C439.329 102.448 457.028 101.364 473.192 101.364C480.146 101.364 486.828 101.545 492.969 101.906" fill="#FFF6ED"/>
<path d="M260.166 142.56C285.27 132.08 318.321 122.323 353.359 115.006C356.249 114.464 359.048 113.831 362.028 113.289C369.253 111.934 376.658 110.579 384.153 109.314C392.1 108.049 400.046 106.875 407.903 105.881C411.876 105.339 415.759 104.887 419.462 104.526L420.365 104.436C439.329 102.448 457.028 101.364 473.192 101.364C480.146 101.364 486.828 101.545 492.969 101.906" stroke="#FFF6ED" stroke-width="2.13" stroke-linecap="round" stroke-linejoin="round"/>
<path d="M529.271 68.4795C575.507 71.4608 603.591 82.3019 601.243 99.7379C599.528 113.199 580.203 128.376 549.228 143.012C546.158 144.457 542.907 145.903 539.656 147.348C539.566 147.439 539.475 147.439 539.385 147.439" stroke="#101828" stroke-width="2.13" stroke-linecap="round" stroke-linejoin="round"/>
<path d="M206.977 202.909C169.591 198.753 147.647 188.454 149.634 172.915C151.62 157.376 177.086 139.488 216.82 122.865C250.232 108.862 293.759 95.8531 342.071 85.8251C345.864 85.012 349.747 84.2893 353.54 83.4762C363.202 81.579 373.045 79.8625 382.979 78.2364C393.725 76.5198 404.291 74.984 414.585 73.7192" stroke="#101828" stroke-width="2.13" stroke-linecap="round" stroke-linejoin="round"/>
<path d="M475.992 684.523C425.331 697.984 374.4 715.963 322.024 712.801" stroke="#101828" stroke-width="2.13" stroke-linecap="round" stroke-linejoin="round"/>
<path d="M375.122 279.971C398.314 279.971 417.114 261.163 417.114 237.962C417.114 214.761 398.314 195.952 375.122 195.952C351.931 195.952 333.131 214.761 333.131 237.962C333.131 261.163 351.931 279.971 375.122 279.971Z" fill="#FD853A"/>
<path d="M347.038 223.145C355.165 207.607 374.4 201.644 389.842 209.865" stroke="#101828" stroke-width="2.13" stroke-linecap="round" stroke-linejoin="round"/>
<path d="M354.804 227.211C360.674 216.008 374.581 211.672 385.778 217.635" stroke="#101828" stroke-width="2.13" stroke-linecap="round" stroke-linejoin="round"/>
<path d="M375.122 243.653C378.264 243.653 380.812 241.105 380.812 237.962C380.812 234.818 378.264 232.27 375.122 232.27C371.98 232.27 369.433 234.818 369.433 237.962C369.433 241.105 371.98 243.653 375.122 243.653Z" stroke="#101828" stroke-width="2.13" stroke-linecap="round" stroke-linejoin="round"/>
<path d="M377.651 268.317L366.273 289.999" stroke="#101828" stroke-width="2.13" stroke-linecap="round" stroke-linejoin="round"/>
<path d="M377.651 268.317C375.845 267.413 375.213 265.155 376.116 263.438L378.012 259.915C378.915 258.108 381.173 257.476 382.889 258.379C384.695 259.282 385.327 261.541 384.424 263.257L382.527 266.781C381.624 268.588 379.367 269.22 377.651 268.317Z" stroke="#101828" stroke-width="2.13" stroke-linecap="round" stroke-linejoin="round"/>
<path d="M303.873 290.902L368.259 323.696" stroke="#101828" stroke-width="2.13" stroke-linecap="round" stroke-linejoin="round"/>
<path d="M330.512 323.064L370.336 343.481" stroke="#101828" stroke-width="2.13" stroke-linecap="round" stroke-linejoin="round"/>
<path d="M286.444 300.569L330.512 323.064" stroke="black" stroke-width="6" stroke-linecap="round" stroke-linejoin="round"/>
<path d="M117.124 436.263C112.97 434.727 108.455 434.818 104.753 436.173C102.585 436.895 100.689 437.98 99.1537 439.244C98.8828 438.251 98.7022 437.257 98.4313 436.263C97.9797 434.366 97.5282 432.378 97.167 430.391C98.8828 428.584 100.418 426.596 101.772 424.428C105.204 419.459 107.552 413.497 107.823 407.353C108.003 401.301 107.913 395.067 105.565 389.827C105.023 388.472 104.391 387.569 103.308 385.762C102.946 385.129 102.224 383.864 101.321 382.961C100.418 381.967 98.7925 381.335 97.167 381.606C93.9161 382.329 92.5615 384.407 91.6585 385.942C91.2069 386.755 90.936 387.478 90.6651 388.382C90.4845 388.833 90.3942 389.104 90.3039 389.466L90.2136 389.737C90.1233 390.008 90.1233 390.008 90.1233 390.098L90.033 390.64C89.4009 393.802 89.7621 396.693 90.1233 399.403C90.4845 402.114 90.8457 404.734 91.1166 407.353C91.4779 411.509 92.11 415.575 92.9227 419.64C91.6585 421.447 90.3039 423.254 88.859 424.88L86.1499 427.952C85.2469 428.945 84.3438 430.12 83.3505 431.294C79.648 435.992 76.7583 441.322 75.2232 447.285C73.5977 453.157 74.2298 460.113 77.5711 465.353C80.822 470.683 86.0596 474.026 91.2972 475.652C96.4446 477.188 101.682 477.549 106.649 476.827C107.281 479.356 107.913 481.886 108.455 484.235C110.442 490.468 108.636 496.341 104.843 498.509C102.043 500.045 99.1537 499.503 97.2573 498.509C97.4379 498.509 97.6185 498.509 97.8894 498.509C100.869 498.419 103.127 495.889 102.946 492.908C102.856 489.926 100.328 487.668 97.3476 487.848C94.3676 487.939 92.11 490.468 92.2906 493.45C92.2906 493.721 92.3809 493.901 92.3809 494.172C92.5615 495.257 93.1033 496.25 93.8258 496.973C94.0064 497.244 94.187 497.425 94.4579 497.696C95.4512 498.69 96.8058 499.683 98.7022 500.225C100.599 500.767 102.946 500.858 105.475 499.864C107.913 498.87 110.171 496.521 111.074 493.45C111.525 491.914 111.796 490.288 111.616 488.571C111.435 486.764 111.074 485.229 110.713 483.602C110.171 481.253 109.539 478.814 108.907 476.285C113.331 475.381 117.395 473.574 121.007 471.135C124.981 468.154 127.961 463.817 128.864 459.029C129.857 454.241 128.954 449.272 126.877 445.207C124.981 441.142 121.368 437.799 117.124 436.263ZM94.8191 395.519C95.4512 393.35 96.5349 387.388 99.8761 388.201C101.953 388.743 102.495 391.544 102.585 393.35C102.856 397.597 102.043 402.023 100.237 405.908C98.5216 409.702 96.7155 413.226 94.6385 416.749C94.187 413.587 93.8258 410.425 93.5548 407.173C93.3742 403.288 93.8258 399.313 94.8191 395.519ZM92.9227 471.497C88.5881 469.599 84.7051 466.528 82.7184 462.462C80.7317 458.487 80.7317 453.789 82.3572 449.363C83.9826 444.936 87.053 440.87 90.3942 437.257C91.2069 436.353 92.0197 435.45 93.1033 434.456L94.5482 433.101C94.9094 432.74 95.1803 432.469 95.5415 432.107C95.9027 433.643 96.264 435.179 96.5349 436.715C96.8058 438.07 97.167 439.335 97.4379 440.69C94.4579 443.671 92.7421 447.285 92.2003 450.447C91.2972 455.777 92.7421 459.842 93.9161 462.191C94.4579 463.366 95.09 464.269 95.4512 464.811C95.8124 465.353 96.0834 465.624 96.0834 465.624C96.0834 465.624 95.6318 464.269 95.1803 461.74C94.8191 459.3 94.4579 455.506 95.9931 451.441C96.6252 449.814 97.5282 448.098 98.8828 446.562C100.237 452.073 101.592 457.493 102.946 462.462C103.94 466.347 104.933 470.141 105.926 473.665C101.502 474.026 96.8961 473.303 92.9227 471.497ZM126.155 458.668C125.884 462.733 123.536 466.708 119.833 469.238C116.582 471.497 112.609 472.942 108.365 473.484C107.371 469.78 106.288 465.986 105.114 461.92C103.579 456.59 102.043 450.898 100.508 444.936C102.134 443.49 104.12 442.316 106.468 441.684C111.796 440.238 118.479 441.955 122.813 447.827C124.981 450.808 126.425 454.693 126.155 458.668Z" fill="#101828" stroke="#101828" stroke-width="2.13" stroke-linecap="round" stroke-linejoin="round"/>
<path d="M277.414 345.469L264.049 322.883L290.237 322.522L277.414 345.469Z" fill="#101828" stroke="#101828" stroke-width="2.13" stroke-linecap="round" stroke-linejoin="round"/>
<path d="M335.118 377.811L361.396 377.54L347.941 354.955L335.118 377.811Z" fill="#101828" stroke="#101828" stroke-width="2.13" stroke-linecap="round" stroke-linejoin="round"/>
<path d="M311.203 334.363L298.343 357.287L305.036 361.045L317.897 338.121L311.203 334.363Z" fill="#101828" stroke="#101828" stroke-width="2.1299" stroke-miterlimit="3.9998" stroke-linecap="round" stroke-linejoin="round"/>
<path d="M322.643 340.765L309.782 363.69L316.475 367.448L329.336 344.523L322.643 340.765Z" fill="#101828" stroke="#101828" stroke-width="2.1299" stroke-miterlimit="3.9998" stroke-linecap="round" stroke-linejoin="round"/>
</svg>
