<svg width="149" height="44" viewBox="0 0 149 44" fill="none" xmlns="http://www.w3.org/2000/svg">
<path d="M74.9494 23.9262C72.3622 23.9262 70.2535 25.8941 70.2535 28.6045C70.2535 31.2984 72.3622 33.2828 74.9494 33.2828C77.5377 33.2828 79.6464 31.2984 79.6464 28.6045C79.6453 25.8941 77.5366 23.9262 74.9494 23.9262ZM74.9494 31.4414C73.5315 31.4414 72.3094 30.2721 72.3094 28.6056C72.3094 26.9215 73.5326 25.7698 74.9494 25.7698C76.3673 25.7698 77.5894 26.9215 77.5894 28.6056C77.5894 30.271 76.3673 31.4414 74.9494 31.4414ZM64.704 23.9262C62.1168 23.9262 60.0081 25.8941 60.0081 28.6045C60.0081 31.2984 62.1168 33.2828 64.704 33.2828C67.2923 33.2828 69.401 31.2984 69.401 28.6045C69.401 25.8941 67.2923 23.9262 64.704 23.9262ZM64.704 31.4414C63.2861 31.4414 62.064 30.2721 62.064 28.6056C62.064 26.9215 63.2872 25.7698 64.704 25.7698C66.1219 25.7698 67.344 26.9215 67.344 28.6056C67.3451 30.271 66.1219 31.4414 64.704 31.4414ZM52.5182 25.3628V27.3472H57.268C57.1261 28.4637 56.7543 29.2788 56.1867 29.8453C55.4959 30.5361 54.4146 31.2984 52.5182 31.2984C49.5944 31.2984 47.3086 28.9411 47.3086 26.0173C47.3086 23.0935 49.5944 20.7362 52.5182 20.7362C54.0956 20.7362 55.2473 21.3566 56.0976 22.1541L57.4979 20.7538C56.3099 19.6197 54.7336 18.7518 52.5182 18.7518C48.5131 18.7518 45.146 22.0122 45.146 26.0173C45.146 30.0224 48.5131 33.2828 52.5182 33.2828C54.6797 33.2828 56.311 32.5733 57.5859 31.2445C58.8971 29.9333 59.3052 28.0897 59.3052 26.6014C59.3052 26.1416 59.27 25.7159 59.1985 25.3617H52.5182V25.3628ZM102.357 26.9039C101.968 25.8589 100.78 23.9262 98.3519 23.9262C95.9418 23.9262 93.9387 25.8226 93.9387 28.6045C93.9387 31.2269 95.9242 33.2828 98.5818 33.2828C100.726 33.2828 101.966 31.9716 102.481 31.2093L100.886 30.1456C100.355 30.9255 99.6279 31.4392 98.5818 31.4392C97.5368 31.4392 96.7921 30.9607 96.3136 30.0213L102.569 27.4341L102.357 26.9039ZM95.977 28.4637C95.9242 26.6553 97.3773 25.7346 98.4234 25.7346C99.2385 25.7346 99.9293 26.1427 100.16 26.7268L95.977 28.4637ZM90.8917 33.0001H92.9465V19.249H90.8917V33.0001ZM87.5235 24.9723H87.4531C86.9922 24.4223 86.1056 23.9262 84.9902 23.9262C82.6505 23.9262 80.5066 25.9821 80.5066 28.6232C80.5066 31.2456 82.6505 33.2839 84.9902 33.2839C86.1067 33.2839 86.9922 32.7878 87.4531 32.2213H87.5235V32.8945C87.5235 34.6842 86.5665 35.6412 85.0254 35.6412C83.767 35.6412 82.9871 34.7381 82.6681 33.9758L80.8784 34.7205C81.3921 35.9602 82.7561 37.4848 85.0254 37.4848C87.4355 37.4848 89.4738 36.0669 89.4738 32.6107V24.2111H87.5246V24.9723H87.5235ZM85.1673 31.4414C83.7494 31.4414 82.5625 30.2534 82.5625 28.6232C82.5625 26.9743 83.7494 25.7698 85.1673 25.7698C86.5665 25.7698 87.6654 26.9743 87.6654 28.6232C87.6654 30.2534 86.5665 31.4414 85.1673 31.4414ZM111.986 19.249H107.068V33.0001H109.12V27.7905H111.985C114.26 27.7905 116.497 26.1438 116.497 23.5203C116.497 20.8968 114.261 19.249 111.986 19.249ZM112.039 25.8765H109.12V21.163H112.039C113.574 21.163 114.445 22.4335 114.445 23.5203C114.445 24.5851 113.574 25.8765 112.039 25.8765ZM124.724 23.902C123.238 23.902 121.699 24.5565 121.062 26.0074L122.884 26.7675C123.273 26.0074 123.999 25.7588 124.76 25.7588C125.821 25.7588 126.9 26.3957 126.918 27.5276V27.6695C126.546 27.4572 125.75 27.1393 124.777 27.1393C122.814 27.1393 120.814 28.2184 120.814 30.2347C120.814 32.075 122.424 33.2597 124.228 33.2597C125.608 33.2597 126.369 32.6404 126.846 31.9144H126.917V32.9759H128.899V27.7036C128.9 25.2638 127.076 23.902 124.724 23.902ZM124.476 31.4381C123.805 31.4381 122.866 31.1015 122.866 30.2699C122.866 29.2084 124.035 28.8014 125.043 28.8014C125.944 28.8014 126.37 28.9961 126.918 29.2612C126.758 30.5361 125.662 31.4381 124.476 31.4381ZM136.117 24.2023L133.764 30.1643H133.694L131.252 24.2023H129.041L132.703 32.5348L130.615 37.1702H132.755L138.4 24.2023H136.117ZM117.63 33.0001H119.682V19.249H117.63V33.0001Z" fill="white"/>
<path d="M52.1599 11.2673C52.1599 12.1891 51.8871 12.9228 51.3404 13.4706C50.72 14.1218 49.9104 14.4474 48.916 14.4474C47.9634 14.4474 47.1527 14.1174 46.4872 13.4574C45.8206 12.7963 45.4873 11.9779 45.4873 11.0011C45.4873 10.0232 45.8206 9.20476 46.4872 8.54476C47.1527 7.88366 47.9634 7.55366 48.916 7.55366C49.389 7.55366 49.8411 7.64606 50.2701 7.82976C50.7002 8.01456 51.0445 8.25986 51.3019 8.56676L50.7222 9.14756C50.2855 8.62506 49.6838 8.36436 48.9149 8.36436C48.2197 8.36436 47.6191 8.60856 47.112 9.09696C46.6049 9.58536 46.3519 10.2201 46.3519 11C46.3519 11.7799 46.6049 12.4146 47.112 12.903C47.6191 13.3914 48.2197 13.6356 48.9149 13.6356C49.6519 13.6356 50.2668 13.3903 50.7585 12.8986C51.0775 12.5785 51.2623 12.133 51.3118 11.5621H48.9149V10.769H52.1126C52.1456 10.9417 52.1599 11.1078 52.1599 11.2673Z" fill="white"/>
<path d="M57.231 8.51072H54.2258V10.6029H56.9362V11.396H54.2258V13.4882H57.231V14.3H53.3777V7.70002H57.231V8.51072Z" fill="white"/>
<path d="M60.807 14.3H59.9589V8.51072H58.1153V7.70002H62.6506V8.51072H60.807V14.3Z" fill="white"/>
<path d="M65.9318 14.3V7.70002H66.7799V14.3H65.9318Z" fill="white"/>
<path d="M70.541 14.3H69.6929V8.51072H67.8493V7.70002H72.3846V8.51072H70.541V14.3Z" fill="white"/>
<path d="M80.9699 13.4475C80.3209 14.1141 79.5146 14.4474 78.5499 14.4474C77.5852 14.4474 76.7789 14.1141 76.131 13.4475C75.482 12.7809 75.1586 11.9647 75.1586 11C75.1586 10.0353 75.482 9.21911 76.131 8.55251C76.7789 7.88591 77.5852 7.55151 78.5499 7.55151C79.5091 7.55151 80.3143 7.88701 80.9655 8.55691C81.6167 9.22681 81.9423 10.0408 81.9423 11C81.9423 11.9647 81.6178 12.7809 80.9699 13.4475ZM76.7569 12.8942C77.2453 13.3892 77.8426 13.6356 78.5499 13.6356C79.2572 13.6356 79.8556 13.3881 80.3429 12.8942C80.8313 12.3992 81.0766 11.7678 81.0766 11C81.0766 10.2322 80.8313 9.60081 80.3429 9.10581C79.8556 8.61081 79.2572 8.36441 78.5499 8.36441C77.8426 8.36441 77.2453 8.61191 76.7569 9.10581C76.2696 9.60081 76.0243 10.2322 76.0243 11C76.0243 11.7678 76.2696 12.3992 76.7569 12.8942Z" fill="white"/>
<path d="M83.1325 14.3V7.70002H84.1643L87.3719 12.8337H87.4082L87.3719 11.5621V7.70002H88.22V14.3H87.3345L83.9784 8.91663H83.9421L83.9784 10.1882V14.3H83.1325Z" fill="white"/>
<path d="M52.1599 11.2673C52.1599 12.1891 51.8871 12.9228 51.3404 13.4706C50.72 14.1218 49.9104 14.4474 48.916 14.4474C47.9634 14.4474 47.1527 14.1174 46.4872 13.4574C45.8206 12.7963 45.4873 11.9779 45.4873 11.0011C45.4873 10.0232 45.8206 9.20476 46.4872 8.54476C47.1527 7.88366 47.9634 7.55366 48.916 7.55366C49.389 7.55366 49.8411 7.64606 50.2701 7.82976C50.7002 8.01456 51.0445 8.25986 51.3019 8.56676L50.7222 9.14756C50.2855 8.62506 49.6838 8.36436 48.9149 8.36436C48.2197 8.36436 47.6191 8.60856 47.112 9.09696C46.6049 9.58536 46.3519 10.2201 46.3519 11C46.3519 11.7799 46.6049 12.4146 47.112 12.903C47.6191 13.3914 48.2197 13.6356 48.9149 13.6356C49.6519 13.6356 50.2668 13.3903 50.7585 12.8986C51.0775 12.5785 51.2623 12.133 51.3118 11.5621H48.9149V10.769H52.1126C52.1456 10.9417 52.1599 11.1078 52.1599 11.2673Z" stroke="white" stroke-width="0.2" stroke-miterlimit="10"/>
<path d="M57.231 8.51072H54.2258V10.6029H56.9362V11.396H54.2258V13.4882H57.231V14.3H53.3777V7.70002H57.231V8.51072Z" stroke="white" stroke-width="0.2" stroke-miterlimit="10"/>
<path d="M60.807 14.3H59.9589V8.51072H58.1153V7.70002H62.6506V8.51072H60.807V14.3Z" stroke="white" stroke-width="0.2" stroke-miterlimit="10"/>
<path d="M65.9318 14.3V7.70002H66.7799V14.3H65.9318Z" stroke="white" stroke-width="0.2" stroke-miterlimit="10"/>
<path d="M70.541 14.3H69.6929V8.51072H67.8493V7.70002H72.3846V8.51072H70.541V14.3Z" stroke="white" stroke-width="0.2" stroke-miterlimit="10"/>
<path d="M80.9699 13.4475C80.3209 14.1141 79.5146 14.4474 78.5499 14.4474C77.5852 14.4474 76.7789 14.1141 76.131 13.4475C75.482 12.7809 75.1586 11.9647 75.1586 11C75.1586 10.0353 75.482 9.21911 76.131 8.55251C76.7789 7.88591 77.5852 7.55151 78.5499 7.55151C79.5091 7.55151 80.3143 7.88701 80.9655 8.55691C81.6167 9.22681 81.9423 10.0408 81.9423 11C81.9423 11.9647 81.6178 12.7809 80.9699 13.4475ZM76.7569 12.8942C77.2453 13.3892 77.8426 13.6356 78.5499 13.6356C79.2572 13.6356 79.8556 13.3881 80.3429 12.8942C80.8313 12.3992 81.0766 11.7678 81.0766 11C81.0766 10.2322 80.8313 9.60081 80.3429 9.10581C79.8556 8.61081 79.2572 8.36441 78.5499 8.36441C77.8426 8.36441 77.2453 8.61191 76.7569 9.10581C76.2696 9.60081 76.0243 10.2322 76.0243 11C76.0243 11.7678 76.2696 12.3992 76.7569 12.8942Z" stroke="white" stroke-width="0.2" stroke-miterlimit="10"/>
<path d="M83.1325 14.3V7.70002H84.1643L87.3719 12.8337H87.4082L87.3719 11.5621V7.70002H88.22V14.3H87.3345L83.9784 8.91663H83.9421L83.9784 10.1882V14.3H83.1325Z" stroke="white" stroke-width="0.2" stroke-miterlimit="10"/>
<path fill-rule="evenodd" clip-rule="evenodd" d="M11.1941 8.71466C11.0502 9.01747 10.9702 9.39461 10.9702 9.83732V34.1649C10.9702 34.6086 11.0503 34.9857 11.1944 35.2884L24.4802 22.0007L11.1941 8.71466ZM11.8879 36.0091C12.3846 36.2451 13.044 36.1877 13.7653 35.7786L29.3832 26.9037L25.1873 22.7078L11.8879 36.0091ZM30.2857 26.392L35.2164 23.5906C36.7531 22.7161 36.7531 21.2872 35.2164 20.4138L30.2835 17.6108L25.8943 22.0007L30.2857 26.392ZM29.3818 17.0984L13.7653 8.22472C13.044 7.81483 12.3845 7.75785 11.8879 7.99417L25.1872 21.2935L29.3818 17.0984Z" fill="white"/>
<path d="M5 1H143.5V-1H5V1ZM147.5 5V39H149.5V5H147.5ZM143.5 43H5V45H143.5V43ZM1 39V5H-1V39H1ZM5 43C2.79086 43 1 41.2091 1 39H-1C-1 42.3137 1.68629 45 5 45V43ZM147.5 39C147.5 41.2091 145.709 43 143.5 43V45C146.814 45 149.5 42.3137 149.5 39H147.5ZM143.5 1C145.709 1 147.5 2.79086 147.5 5H149.5C149.5 1.68629 146.814 -1 143.5 -1V1ZM5 -1C1.68629 -1 -1 1.68629 -1 5H1C1 2.79086 2.79086 1 5 1V-1Z" fill="white"/>
</svg>
