<svg width="624" height="485" viewBox="0 0 624 485" fill="none" xmlns="http://www.w3.org/2000/svg">
<path d="M565.054 44.3352C565.054 44.3352 595.424 39.409 577.301 92.7904C577.301 92.7904 549.353 68.5628 554.781 49.53C561.286 45.6787 565.054 44.3352 565.054 44.3352Z" fill="#101828" stroke="#101828" stroke-width="2.13" stroke-linecap="round" stroke-linejoin="round"/>
<path d="M551.686 46.8878C551.686 46.8878 574.923 23.5559 603.993 47.1118C603.993 47.1118 566.893 68.2493 551.641 57.7701C551.103 50.6944 551.686 46.8878 551.686 46.8878Z" fill="#101828" stroke="#101828" stroke-width="2.13" stroke-linecap="round" stroke-linejoin="round"/>
<path d="M553.121 44.2008C553.121 44.2008 529.436 20.645 503.058 48.8135C503.058 48.8135 539.888 68.8315 553.839 56.0683C553.929 48.3657 553.121 44.2008 553.121 44.2008Z" fill="#054F31"/>
<path d="M553.121 44.2008C553.121 44.2008 533.877 24.765 513.914 42.1408C513.914 42.1408 539.888 68.7867 553.839 56.0683C553.929 48.3656 553.121 44.2008 553.121 44.2008Z" fill="#101828" stroke="#101828" stroke-width="2.13" stroke-linecap="round" stroke-linejoin="round"/>
<path d="M539.305 47.6938C539.305 47.6938 506.019 63.5022 520.867 95.1638C520.867 95.1638 556.755 66.3236 550.968 50.0673C543.611 48.0073 539.305 47.6938 539.305 47.6938Z" fill="#054F31"/>
<path d="M531.454 81.0125C534.056 83.1173 535.133 86.2969 533.787 88.133C532.441 89.9691 529.256 89.7452 526.654 87.6404C524.052 85.5356 522.976 82.356 524.321 80.5199C525.622 78.6838 528.807 78.9077 531.454 81.0125Z" fill="#101828" stroke="#101828" stroke-width="2.13" stroke-linecap="round" stroke-linejoin="round"/>
<path d="M564.202 74.6085C562.946 77.6985 560.165 79.6242 558.056 78.8629C555.903 78.1016 555.185 75.0115 556.486 71.8767C557.742 68.7867 560.523 66.861 562.632 67.6223C564.74 68.3836 565.458 71.5185 564.202 74.6085Z" fill="#101828" stroke="#101828" stroke-width="2.13" stroke-linecap="round" stroke-linejoin="round"/>
<path d="M525.578 73.9815C527.193 69.548 531.32 66.6371 534.819 67.488C538.273 68.3388 539.798 72.638 538.183 77.1163C536.568 81.5498 532.441 84.4607 528.942 83.6098C525.443 82.759 523.963 78.4598 525.578 73.9815Z" fill="#101828" stroke="#101828" stroke-width="2.13" stroke-linecap="round" stroke-linejoin="round"/>
<path d="M555.364 48.2312L547.514 52.5304C553.75 114.286 544.06 169.638 519.791 226.871C521.72 227.766 523.693 228.572 525.712 229.289C557.024 159.786 560.703 105.509 555.364 48.2312Z" fill="#101828" stroke="#101828" stroke-width="2.13" stroke-linecap="round" stroke-linejoin="round"/>
<path d="M527.595 203.27C527.595 208.375 521.853 225.706 521.27 227.498L528.717 210.167C529.435 205.957 527.595 203.27 527.595 203.27Z" fill="#101828" stroke="#101828" stroke-width="2.13" stroke-linecap="round" stroke-linejoin="round"/>
<path d="M521.181 227.631L521.226 227.498C521.226 227.587 521.181 227.631 521.181 227.631Z" fill="#101828" stroke="#101828" stroke-width="2.13" stroke-linecap="round" stroke-linejoin="round"/>
<path d="M531.095 209.987L523.11 227.318C523.11 227.318 533.069 209.54 537.107 205.554C537.107 205.554 533.742 206.45 531.095 209.987Z" fill="#101828" stroke="#101828" stroke-width="2.13" stroke-linecap="round" stroke-linejoin="round"/>
<path d="M529.974 208.017C529.974 208.017 534.46 188.626 533.608 183.207C533.608 183.207 536.254 185.849 536.03 190.104L529.974 208.017Z" fill="#101828" stroke="#101828" stroke-width="2.13" stroke-linecap="round" stroke-linejoin="round"/>
<path d="M532.172 207.659C532.172 207.659 541.054 189.387 545.181 185.223C545.181 185.223 541.368 186.253 538.811 189.925L532.172 207.659Z" fill="#101828" stroke="#101828" stroke-width="2.13" stroke-linecap="round" stroke-linejoin="round"/>
<path d="M538.632 183.879C538.632 183.879 540.92 164.354 539.484 159.114C539.484 159.114 542.445 161.398 542.669 165.608L538.632 183.879Z" fill="#101828" stroke="#101828" stroke-width="2.13" stroke-linecap="round" stroke-linejoin="round"/>
<path d="M540.83 183.252C540.83 183.252 547.649 164.354 551.372 159.786C551.372 159.786 547.649 161.219 545.495 165.115L540.83 183.252Z" fill="#101828" stroke="#101828" stroke-width="2.13" stroke-linecap="round" stroke-linejoin="round"/>
<path d="M545.989 154.188C545.989 154.188 546.617 134.707 544.733 129.692C544.733 129.692 547.873 131.707 548.501 135.872L545.989 154.188Z" fill="#101828" stroke="#101828" stroke-width="2.13" stroke-linecap="round" stroke-linejoin="round"/>
<path d="M548.142 153.427C548.142 153.427 553.391 134.17 556.755 129.378C556.755 129.378 553.121 131.08 551.282 135.11L548.142 153.427Z" fill="#101828" stroke="#101828" stroke-width="2.13" stroke-linecap="round" stroke-linejoin="round"/>
<path d="M550.654 124.586C550.654 124.586 549.353 105.33 546.617 100.493C546.617 100.493 550.475 102.24 551.596 106.27L550.654 124.586Z" fill="#101828" stroke="#101828" stroke-width="2.13" stroke-linecap="round" stroke-linejoin="round"/>
<path d="M553.032 123.646C553.032 123.646 557.069 104.21 560.389 99.1495C560.389 99.1495 556.396 101.165 554.692 105.285L553.032 123.646Z" fill="#101828" stroke="#101828" stroke-width="2.13" stroke-linecap="round" stroke-linejoin="round"/>
<path d="M552.718 96.8209C552.718 96.8209 549.936 77.8329 546.841 73.265C546.841 73.265 550.834 74.6981 552.269 78.5942L552.718 96.8209Z" fill="#101828" stroke="#101828" stroke-width="2.13" stroke-linecap="round" stroke-linejoin="round"/>
<path d="M555.05 95.7013C555.05 95.7013 557.652 76.1759 560.613 70.9363C560.613 70.9363 556.755 73.2202 555.364 77.385L555.05 95.7013Z" fill="#101828" stroke="#101828" stroke-width="2.13" stroke-linecap="round" stroke-linejoin="round"/>
<path d="M552.673 71.7871C552.673 71.7871 547.021 53.7396 543.207 49.7091C543.207 49.7091 547.424 50.5152 549.488 54.0978L552.673 71.7871Z" fill="#101828" stroke="#101828" stroke-width="2.13" stroke-linecap="round" stroke-linejoin="round"/>
<path d="M554.826 70.3541C554.826 70.3541 554.467 50.963 556.665 45.4547C556.665 45.4547 553.122 48.2313 552.359 52.5304L554.826 70.3541Z" fill="#101828" stroke="#101828" stroke-width="2.13" stroke-linecap="round" stroke-linejoin="round"/>
<path d="M544.06 50.7391C543.791 50.3361 543.522 49.9778 543.252 49.7091C543.252 49.7091 543.97 49.8435 544.957 50.2465L544.06 50.7391Z" fill="#101828" stroke="#101828" stroke-width="2.13" stroke-linecap="round" stroke-linejoin="round"/>
<path d="M528.538 227.319C528.538 227.319 527.551 227.542 526.206 228.304C529.077 221.855 531.723 215.541 534.146 209.316C535.267 207.704 536.344 206.36 537.107 205.599C537.107 205.599 536.344 205.823 535.267 206.405C537.107 201.613 538.811 196.866 540.381 192.209C542.176 189.163 543.88 186.566 545.181 185.267C545.181 185.267 543.836 185.626 542.176 186.7C544.508 179.401 546.527 172.191 548.277 165.16C549.398 162.876 550.43 160.95 551.327 159.875C551.327 159.875 550.43 160.234 549.264 161.04C551.372 152.038 552.987 143.216 554.243 134.528C555.095 132.334 555.948 130.542 556.71 129.423C556.71 129.423 555.858 129.826 554.736 130.722C555.723 123.153 556.396 115.675 556.845 108.241C557.966 104.434 559.222 100.941 560.344 99.2392C560.344 99.2392 558.729 100.045 557.159 101.702C557.383 95.1191 557.428 88.6256 557.338 82.0873C558.28 77.5642 559.402 73.1306 560.568 71.0706C560.568 71.0706 558.684 72.1902 557.114 74.2502C556.8 66.3684 556.307 58.5314 555.589 50.6048C555.858 48.5 556.217 46.7087 556.665 45.5443C556.665 45.5443 554.871 46.9774 553.57 49.3061L551.551 50.4257C552.179 57.9492 552.718 65.3832 552.987 72.862C554.602 70.7572 556.441 69.6824 556.441 69.6824C555.23 71.7872 554.108 76.1759 553.211 80.699C553.346 87.2373 553.301 93.7308 553.032 100.314C554.647 98.657 556.217 97.8509 556.217 97.8509C555.05 99.5974 553.839 103.09 552.718 106.852C552.314 114.286 551.596 121.765 550.609 129.333C551.686 128.438 552.583 128.035 552.583 128.035C551.821 129.109 550.968 130.946 550.116 133.14C548.86 141.828 547.245 150.65 545.136 159.651C546.303 158.845 547.2 158.487 547.2 158.487C546.303 159.562 545.226 161.488 544.15 163.771C542.4 170.802 540.381 178.012 538.049 185.312C539.708 184.237 541.054 183.879 541.054 183.879C539.753 185.178 538.049 187.82 536.254 190.82C534.684 195.478 532.979 200.225 531.14 205.017C532.217 204.434 532.979 204.211 532.979 204.211C532.172 205.017 531.14 206.315 530.019 207.928C527.596 214.152 524.95 220.467 522.079 226.916C523.424 226.154 524.411 225.93 524.411 225.93C523.873 226.423 523.245 227.139 522.527 228.035C523.873 228.573 525.219 229.11 526.565 229.558C527.282 228.572 527.955 227.811 528.538 227.319Z" fill="#101828" stroke="#101828" stroke-width="2.13" stroke-linecap="round" stroke-linejoin="round"/>
<path d="M551.955 50.963C574.385 48.2313 574.878 75.0563 591.97 114.868C591.97 114.868 644.277 27.0489 556.217 44.8278C556.217 44.8278 552.628 44.9173 551.955 50.963Z" fill="#101828" stroke="#101828" stroke-width="2.13" stroke-linecap="round" stroke-linejoin="round"/>
<path d="M557.607 42.5438C645.667 24.765 593.361 112.584 593.361 112.584C588.92 102.24 585.6 92.7456 582.729 84.416C584.299 81.2811 585.6 78.6837 586.587 75.1906C585.286 77.7433 583.985 80.2959 582.056 82.5351C574.25 60.054 569.495 46.6639 553.346 48.6343C554.019 42.6334 557.607 42.5438 557.607 42.5438Z" fill="#054F31"/>
<path d="M554.692 52.62C537.017 47.1564 529.077 72.3693 505.391 105.509C505.391 105.509 484.935 18.9879 552.718 46.619C552.718 46.5743 555.634 47.1564 554.692 52.62Z" fill="#101828" stroke="#101828" stroke-width="2.13" stroke-linecap="round" stroke-linejoin="round"/>
<path d="M502.789 63.771C505.929 46.0369 517.548 31.7959 551.327 45.5443C551.327 45.5443 554.243 46.1265 553.301 51.5452C539.439 47.2908 532.172 60.9497 518.265 83.0277C517.458 82.1768 516.875 81.102 516.112 81.3259C514.228 83.5203 514.049 86.5655 514.318 89.163C511.492 93.5069 508.396 98.1195 504.987 102.956C504.987 102.956 500.77 86.1625 501.981 69.9063C504 67.8462 506.916 66.2341 507.544 63.5023C505.884 63.8605 504.314 63.8605 502.789 63.771Z" fill="#054F31"/>
<path d="M553.211 44.0216C553.211 44.0216 560.523 39.9016 562.901 35.6472C562.901 35.6472 560.748 47.2908 553.705 49.4852L553.211 44.0216Z" fill="#054F31"/>
<path d="M558.505 49.7987C558.505 49.7987 566.265 46.9325 570.706 47.6043C570.706 47.6043 561.421 42.7229 555.14 46.4399L558.505 49.7987Z" fill="#054F31"/>
<path d="M554.422 42.8573C554.422 42.8573 547.604 39.3642 545.63 35.4233C545.63 35.4233 546.796 46.5295 553.525 48.1865L554.422 42.8573Z" fill="#054F31"/>
<path d="M555.23 47.4699C555.23 47.4699 555.05 40.6181 557.159 36.9907C557.159 36.9907 549.443 44.0217 550.923 49.7539L555.23 47.4699Z" fill="#054F31"/>
<path d="M547.021 46.5295C555.544 46.843 559.85 48.0074 559.85 48.0074C559.85 48.0074 570.168 52.3065 558.55 75.4594C557.293 73.5785 555.768 72.1454 553.435 70.9363C554.153 74.4294 554.153 78.4598 554.871 82.132C550.789 88.9838 545.136 97.1344 537.241 106.852C537.241 106.852 532.935 97.2687 530.916 85.5803C531.948 83.8786 532.89 82.3112 532.89 79.8481C532.307 81.0125 531.365 81.5499 530.378 81.9081C528.718 68.1597 531.006 52.6648 547.021 46.5295Z" fill="#054F31"/>
<path d="M600.942 81.9528C600.942 81.9528 601.256 47.5147 573.174 47.1564C573.174 47.1564 602.916 44.156 600.942 81.9528Z" fill="#101828" stroke="#101828" stroke-width="2.13" stroke-linecap="round" stroke-linejoin="round"/>
<path d="M553.884 51.8587L542.714 83.9681L551.103 51.3661L553.884 51.8587Z" fill="#101828" stroke="#101828" stroke-width="2.13" stroke-linecap="round" stroke-linejoin="round"/>
<path d="M534.549 45.4547C534.549 45.4547 515.394 46.5743 507.275 81.505C507.275 81.505 510.684 46.7086 534.549 45.4547Z" fill="#101828" stroke="#101828" stroke-width="2.13" stroke-linecap="round" stroke-linejoin="round"/>
<path d="M551.327 159.786C551.327 159.786 545.899 163.951 542.849 167.265L541.548 165.652C541.548 165.697 548.994 159.831 551.327 159.786Z" fill="#101828" stroke="#101828" stroke-width="2.13" stroke-linecap="round" stroke-linejoin="round"/>
<path d="M560.344 99.1943C560.344 99.1943 554.153 105.957 551.551 111.778L550.609 108.644C550.564 108.644 555.23 100.359 560.344 99.1943Z" fill="#101828" stroke="#101828" stroke-width="2.13" stroke-linecap="round" stroke-linejoin="round"/>
<path d="M139.379 309.854H70.7888V404.704H139.379V309.854Z" fill="#FFF6ED" stroke="#101828" stroke-width="2.13" stroke-linecap="round" stroke-linejoin="round"/>
<path d="M70.7888 404.704V430.141L82.0486 404.704" fill="#FFF6ED"/>
<path d="M70.7888 404.704V430.141L82.0486 404.704" stroke="#101828" stroke-width="2.13" stroke-linecap="round" stroke-linejoin="round"/>
<path d="M139.379 404.704V430.589L128.568 404.704" fill="#FFF6ED"/>
<path d="M139.379 404.704V430.589L128.568 404.704" stroke="#101828" stroke-width="2.13" stroke-linecap="round" stroke-linejoin="round"/>
<path d="M139.335 321.587H81.5551V404.704H139.335V321.587Z" fill="#FFF6ED" stroke="#101828" stroke-width="2.13" stroke-linecap="round" stroke-linejoin="round"/>
<path d="M82.0486 360.682L139.379 360.727" stroke="#101828" stroke-width="2.13" stroke-linecap="round" stroke-linejoin="round"/>
<path d="M110.938 351.905C112.573 351.905 113.899 350.582 113.899 348.949C113.899 347.317 112.573 345.993 110.938 345.993C109.303 345.993 107.978 347.317 107.978 348.949C107.978 350.582 109.303 351.905 110.938 351.905Z" fill="#FFF6ED" stroke="#101828" stroke-width="2.13" stroke-linecap="round" stroke-linejoin="round"/>
<path d="M110.938 391.045C112.573 391.045 113.899 389.722 113.899 388.09C113.899 386.457 112.573 385.134 110.938 385.134C109.303 385.134 107.978 386.457 107.978 388.09C107.978 389.722 109.303 391.045 110.938 391.045Z" fill="#FFF6ED" stroke="#101828" stroke-width="2.13" stroke-linecap="round" stroke-linejoin="round"/>
<path fill-rule="evenodd" clip-rule="evenodd" d="M543.207 186.879C489.645 139.544 421.279 212.54 384.763 192.029C348.202 171.564 404.366 131.125 397.054 104.882C389.742 78.6389 346.093 90.0138 309.264 123.915C277.996 152.8 257.047 234.215 184.688 239.32C86.2654 246.217 147.409 356.921 156.695 366.997C160.464 422.08 343.492 464.444 387.544 315.093C411.903 232.469 566.759 284.506 543.207 186.879Z" fill="#FD853A"/>
<path d="M106.318 254.77C125.024 238.066 144.987 230.319 134.265 264.13C124.351 268.25 128.478 270.265 124.217 276.849C115.918 275.46 112.239 300.046 106.138 302.957C102.236 304.345 88.9121 311.869 87.6112 283.879C86.6243 262.563 100.979 260.995 106.318 254.77Z" fill="#101828" stroke="#101828" stroke-width="2.13" stroke-linecap="round" stroke-linejoin="round"/>
<path d="M91.6934 286.746C73.3009 276.58 92.0075 257.995 68.4112 249.217C59.0355 248.098 51.8131 244.694 45.0392 238.201C24.4037 231.304 16.8224 238.29 20.7252 259.428C25.3906 270.803 42.7514 271.385 44.7252 285.044C51.3196 291.94 63.5663 288.806 72.2243 291.851C78.8635 293.239 80.0748 300.897 86.9832 301.793C96.942 302.151 101.697 300.584 98.7364 294.09C97.3009 290.955 94.7439 288.447 91.6934 286.746Z" fill="#101828" stroke="#101828" stroke-width="2.13" stroke-linecap="round" stroke-linejoin="round"/>
<path fill-rule="evenodd" clip-rule="evenodd" d="M25.5701 240.126C40.1495 271.743 83.3495 270.668 94.6093 304.121L25.5701 240.126Z" fill="#FFF6ED"/>
<path d="M25.5701 240.126C40.1495 271.743 83.3495 270.668 94.6093 304.121" stroke="#FFF6ED" stroke-width="2.13" stroke-linecap="round" stroke-linejoin="round"/>
<path fill-rule="evenodd" clip-rule="evenodd" d="M130.632 243.575C123.903 254.591 91.6038 264.085 98.7365 294.135L130.632 243.575Z" fill="#FFF6ED"/>
<path d="M130.632 243.575C123.903 254.591 91.6038 264.085 98.7365 294.135" stroke="#FFF6ED" stroke-width="2.13" stroke-linecap="round" stroke-linejoin="round"/>
<path fill-rule="evenodd" clip-rule="evenodd" d="M132.112 256.204C127.626 252.755 120.09 257.099 115.155 257.637L132.112 256.204Z" fill="#FFF6ED"/>
<path d="M132.112 256.204C127.626 252.755 120.09 257.099 115.155 257.637" stroke="#FFF6ED" stroke-width="2.13" stroke-linecap="round" stroke-linejoin="round"/>
<path fill-rule="evenodd" clip-rule="evenodd" d="M110.4 251.233C109.862 255.129 109.054 258.264 108.92 262.205L110.4 251.233Z" fill="#FFF6ED"/>
<path d="M110.4 251.233C109.862 255.129 109.054 258.264 108.92 262.205" stroke="#FFF6ED" stroke-width="2.13" stroke-linecap="round" stroke-linejoin="round"/>
<path fill-rule="evenodd" clip-rule="evenodd" d="M58.4523 247.605C56.6579 254.77 60.3364 262.339 58.6766 269.594L58.4523 247.605Z" fill="#FFF6ED"/>
<path d="M58.4523 247.605C56.6579 254.77 60.3364 262.339 58.6766 269.594" stroke="#FFF6ED" stroke-width="2.13" stroke-linecap="round" stroke-linejoin="round"/>
<path fill-rule="evenodd" clip-rule="evenodd" d="M49.4355 242.276C48.2691 252.352 45.7121 259.428 53.114 266.817L49.4355 242.276Z" fill="#FFF6ED"/>
<path d="M49.4355 242.276C48.2691 252.352 45.7121 259.428 53.114 266.817" stroke="#FFF6ED" stroke-width="2.13" stroke-linecap="round" stroke-linejoin="round"/>
<path fill-rule="evenodd" clip-rule="evenodd" d="M45.6673 263.638C40.5084 266.324 34.8112 268.026 28.9346 267.892L45.6673 263.638Z" fill="#FFF6ED"/>
<path d="M45.6673 263.638C40.5084 266.324 34.8112 268.026 28.9346 267.892" stroke="#FFF6ED" stroke-width="2.13" stroke-linecap="round" stroke-linejoin="round"/>
<path fill-rule="evenodd" clip-rule="evenodd" d="M22.1159 261.085C23.0131 255.89 27.0056 252.487 30.4149 248.904C27.0953 248.68 23.7308 248.77 20.4561 249.217" fill="#FFF6ED"/>
<path d="M22.1159 261.085C23.0131 255.89 27.0056 252.487 30.4149 248.904C27.0953 248.68 23.7308 248.77 20.4561 249.217" stroke="#FFF6ED" stroke-width="2.13" stroke-linecap="round" stroke-linejoin="round"/>
<path fill-rule="evenodd" clip-rule="evenodd" d="M49.1215 288.089C54.9532 280.566 65.4504 282.267 73.9289 279.849C71.5514 283.7 69.1738 285.85 66.7962 289.701" fill="#FFF6ED"/>
<path d="M49.1215 288.089C54.9532 280.566 65.4504 282.267 73.9289 279.849C71.5514 283.7 69.1738 285.85 66.7962 289.701" stroke="#FFF6ED" stroke-width="2.13" stroke-linecap="round" stroke-linejoin="round"/>
<path d="M106.138 296.822C108.022 284.506 109.637 272.818 123.185 268.922C128.434 265.608 135.163 259.249 138.707 267.713C142.43 272.818 148.127 277.923 154.497 279.401C156.74 279.759 160.06 280.386 160.105 283.208C157.234 290.597 144 294.583 136.912 291.672C129.824 308.018 123.993 298.165 111.611 299.374C105.51 306.808 101.652 307.346 106.138 296.822Z" fill="#101828" stroke="#101828" stroke-width="2.13" stroke-linecap="round" stroke-linejoin="round"/>
<path fill-rule="evenodd" clip-rule="evenodd" d="M159.342 282.178C137.092 285.313 111.88 274.833 104.164 304.659L159.342 282.178Z" fill="#FFF6ED"/>
<path d="M159.342 282.178C137.092 285.313 111.88 274.833 104.164 304.659" stroke="#FFF6ED" stroke-width="2.13" stroke-linecap="round" stroke-linejoin="round"/>
<path fill-rule="evenodd" clip-rule="evenodd" d="M127.716 300.897C122.198 297.762 120.314 291.134 118.923 285.312C124.172 288.089 129.286 291.045 134.31 294.269" fill="#FFF6ED"/>
<path d="M127.716 300.897C122.198 297.762 120.314 291.134 118.923 285.312C124.172 288.089 129.286 291.045 134.31 294.269" stroke="#FFF6ED" stroke-width="2.13" stroke-linecap="round" stroke-linejoin="round"/>
<path fill-rule="evenodd" clip-rule="evenodd" d="M149.024 290.955C144.449 288.671 140.142 285.895 136.194 282.67L149.024 290.955Z" fill="#FFF6ED"/>
<path d="M149.024 290.955C144.449 288.671 140.142 285.895 136.194 282.67" stroke="#FFF6ED" stroke-width="2.13" stroke-linecap="round" stroke-linejoin="round"/>
<path fill-rule="evenodd" clip-rule="evenodd" d="M134.265 264.13C132.964 269.997 128.03 277.565 125.518 283.029C123.678 278.64 123.903 274.475 122.467 269.952" fill="#FFF6ED"/>
<path d="M134.265 264.13C132.964 269.997 128.03 277.565 125.518 283.029C123.678 278.64 123.903 274.475 122.467 269.952" stroke="#FFF6ED" stroke-width="2.13" stroke-linecap="round" stroke-linejoin="round"/>
<path d="M117.667 297.493H73.4803V309.63H117.667V297.493Z" fill="#FFF6ED" stroke="#101828" stroke-width="2.13" stroke-linecap="round" stroke-linejoin="round"/>
<path d="M117.667 306.898H73.4803" stroke="#101828" stroke-width="2.13" stroke-linecap="round" stroke-linejoin="round"/>
<path d="M73.4803 297.493H109.727" stroke="#101828" stroke-width="2.13" stroke-linecap="round" stroke-linejoin="round"/>
<path fill-rule="evenodd" clip-rule="evenodd" d="M129.6 264.13C129.6 264.13 124.665 269.952 122.467 269.952C120.314 269.952 117.443 269.191 113.899 272.728C110.4 276.222 105.914 285.357 105.914 285.357" fill="#FFF6ED"/>
<path d="M129.6 264.13C129.6 264.13 124.665 269.952 122.467 269.952C120.314 269.952 117.443 269.191 113.899 272.728C110.4 276.222 105.914 285.357 105.914 285.357" stroke="#FFF6ED" stroke-width="2.13" stroke-linecap="round" stroke-linejoin="round"/>
<path d="M291.858 219.526C322.587 226.915 360.493 230.095 396.965 217.153C478.116 188.313 547.335 149.396 547.335 149.396" stroke="#101828" stroke-width="2.13" stroke-linecap="round" stroke-linejoin="round"/>
<path fill-rule="evenodd" clip-rule="evenodd" d="M503.507 178.863C501.622 167.668 480.628 171.026 473.899 172.549C464.793 174.564 457.032 182.177 449.585 187.327C435.14 197.314 418.722 208.375 402.572 215.272C369.331 229.513 331.335 221.273 296.344 224.766C285.981 225.796 281.764 229.468 289.929 236.678C292.127 238.649 317.607 248.411 328.015 250.068C341.518 252.263 351.925 260.01 366.594 261.13C375.836 261.846 384.673 258.98 393.555 256.92C412.441 252.487 434.826 248.814 451.693 238.47C457.256 235.066 462.236 231.08 467.529 227.408C482.871 216.705 507.095 200.404 503.507 178.863Z" fill="#FFF6ED" stroke="#101828" stroke-width="2.13" stroke-linecap="round" stroke-linejoin="round"/>
<path fill-rule="evenodd" clip-rule="evenodd" d="M464.792 161.711C464.792 159.472 466.677 157.681 468.964 157.681C471.252 157.681 473.136 159.472 473.136 161.711C473.136 163.951 471.252 165.742 468.964 165.742C466.632 165.742 464.792 163.951 464.792 161.711Z" fill="#101828" stroke="#101828" stroke-width="2.13" stroke-linecap="round" stroke-linejoin="round"/>
<path fill-rule="evenodd" clip-rule="evenodd" d="M472.374 163.816L467.17 166.369C466.497 166.727 465.645 166.414 465.286 165.742C464.927 165.07 465.241 164.219 465.914 163.861L471.118 161.308C471.791 160.95 472.643 161.264 473.002 161.935C473.361 162.607 473.047 163.458 472.374 163.816Z" fill="#EC4A0A" stroke="#101828" stroke-width="2.13" stroke-linecap="round" stroke-linejoin="round"/>
<path fill-rule="evenodd" clip-rule="evenodd" d="M464.478 175.729C464.882 175.057 464.748 174.251 464.164 173.937C463.581 173.579 462.146 173.131 461.697 173.758C460.262 175.729 457.794 178.863 457.794 178.863C457.794 178.863 457.929 181.103 459.634 179.983C460.621 179.311 462.594 176.221 462.729 176.311C463.312 176.624 464.12 176.355 464.478 175.729Z" fill="#FFF6ED" stroke="#101828" stroke-width="2.13" stroke-linecap="round" stroke-linejoin="round"/>
<path fill-rule="evenodd" clip-rule="evenodd" d="M466.632 169.593C464.792 166.951 468.247 162.786 473.181 162.338C478.161 161.891 482.243 167.533 483.723 168.339C491.888 172.773 490.138 181.819 482.602 188.357C480.404 190.238 470.4 192.298 468.785 189.163C467.125 185.984 476.86 181.595 475.649 178.46" fill="#101828"/>
<path d="M466.632 169.593C464.792 166.951 468.247 162.786 473.181 162.338C478.161 161.891 482.243 167.533 483.723 168.339C491.888 172.773 490.138 181.819 482.602 188.357C480.404 190.238 470.4 192.298 468.785 189.163C467.125 185.984 476.86 181.595 475.649 178.46" stroke="#101828" stroke-width="2.13" stroke-linecap="round" stroke-linejoin="round"/>
<path fill-rule="evenodd" clip-rule="evenodd" d="M473.854 186.835L469.862 195.567L470.49 200.986C470.49 200.986 465.465 203.046 461.024 199.598C456.583 196.15 456.942 192.253 456.942 192.253L463.043 181.461L473.854 186.835Z" fill="#EC4A0A" stroke="#101828" stroke-width="2.13" stroke-linecap="round" stroke-linejoin="round"/>
<path fill-rule="evenodd" clip-rule="evenodd" d="M479.237 186.297C483.185 181.416 483.23 173.489 478.699 169.862C476.456 168.026 472.598 165.563 469.862 165.921C467.08 166.324 464.254 172.37 462.236 174.833C458.288 179.714 459.365 184.864 463.895 188.536C466.363 190.507 470.086 191.447 473.092 190.82C475.604 190.283 477.443 188.536 479.237 186.297Z" fill="#EC4A0A" stroke="#101828" stroke-width="2.13" stroke-linecap="round" stroke-linejoin="round"/>
<path fill-rule="evenodd" clip-rule="evenodd" d="M470.759 175.549C468.74 176.266 464.03 176.982 463.985 178.236C463.94 179.849 467.394 180.117 467.843 179.983" fill="#EC4A0A"/>
<path d="M470.759 175.549C468.74 176.266 464.03 176.982 463.985 178.236C463.94 179.849 467.394 180.117 467.843 179.983" stroke="#101828" stroke-width="2.13" stroke-linecap="round" stroke-linejoin="round"/>
<path fill-rule="evenodd" clip-rule="evenodd" d="M471.477 164.264C471.611 162.562 467.529 167.354 467.529 167.354L476.097 168.115L483.768 180.699C483.768 180.699 489.196 175.37 487.402 173.579" fill="#101828"/>
<path d="M471.477 164.264C471.611 162.562 467.529 167.354 467.529 167.354L476.097 168.115L483.768 180.699C483.768 180.699 489.196 175.37 487.402 173.579" stroke="#101828" stroke-width="2.13" stroke-linecap="round" stroke-linejoin="round"/>
<path fill-rule="evenodd" clip-rule="evenodd" d="M480.628 181.774C480.314 181.64 482.333 181.147 482.781 183.834C483.095 185.715 479.865 188.492 478.206 185.805" fill="#EC4A0A"/>
<path d="M480.628 181.774C480.314 181.64 482.333 181.147 482.781 183.834C483.095 185.715 479.865 188.492 478.206 185.805" stroke="#101828" stroke-width="2.13" stroke-linecap="round" stroke-linejoin="round"/>
<path d="M481.077 184.103L480.897 184.282L480.538 184.506L480.045 184.64" stroke="#101828" stroke-width="2.13" stroke-linecap="round" stroke-linejoin="round"/>
<path fill-rule="evenodd" clip-rule="evenodd" d="M464.972 172.28C465.6 173.265 466.991 173.713 468.157 173.668L464.972 172.28Z" fill="#EC4A0A"/>
<path d="M464.972 172.28C465.6 173.265 466.991 173.713 468.157 173.668" stroke="#101828" stroke-width="2.13" stroke-linecap="round" stroke-linejoin="round"/>
<path fill-rule="evenodd" clip-rule="evenodd" d="M471.835 176.221C472.957 177.923 473.944 178.012 475.873 178.147L471.835 176.221Z" fill="#EC4A0A"/>
<path d="M471.835 176.221C472.957 177.923 473.944 178.012 475.873 178.147" stroke="#101828" stroke-width="2.13" stroke-linecap="round" stroke-linejoin="round"/>
<path fill-rule="evenodd" clip-rule="evenodd" d="M480 183.431C480.404 182.759 481.166 182.535 481.75 182.894C482.333 183.252 483.409 184.327 483.051 184.999C481.974 187.193 480.314 190.82 480.314 190.82C480.314 190.82 478.25 191.716 478.475 189.701C478.609 188.492 480.449 185.357 480.314 185.267C479.731 184.909 479.596 184.103 480 183.431Z" fill="#FFF6ED" stroke="#101828" stroke-width="2.13" stroke-linecap="round" stroke-linejoin="round"/>
<path fill-rule="evenodd" clip-rule="evenodd" d="M418.318 192.791C403.783 200.359 397.144 201.12 397.144 201.12C397.099 198.254 396.83 180.968 395.08 176.445C394.183 174.161 387.05 169.593 387.05 169.593C387.05 169.593 385.346 167.488 384.045 166.19C382.744 164.891 381.802 165.608 381.712 166.369C381.578 167.13 383.551 169.28 383.551 169.28C383.551 169.28 381.936 167.802 381.039 167.22C380.321 166.727 378.931 167.085 379.245 168.071C379.514 168.921 380.86 170.444 381.533 171.161C381.757 171.429 381.936 171.564 381.936 171.564C381.936 171.564 381.802 171.385 381.533 171.161C380.86 170.444 379.379 169.011 378.617 168.787C377.54 168.474 377.002 169.101 377.361 170.086C377.72 171.116 379.604 173.131 379.604 173.131L384.314 179.849C384.314 179.849 384.538 195.657 384.09 200.314L385.032 205.733C384.449 205.957 383.865 206.181 383.327 206.36C382.923 211.958 382.878 216.929 383.865 218.496C386.512 222.795 410.019 220.467 423.163 212.361C436.307 204.255 444.112 196.508 444.112 196.508L454.564 189.97C454.609 189.97 432.852 185.222 418.318 192.791Z" fill="#EC4A0A" stroke="#101828" stroke-width="2.13" stroke-linecap="round" stroke-linejoin="round"/>
<path d="M381.802 171.474L383.372 173.221L386.557 176.131" fill="#EC4A0A"/>
<path d="M381.802 171.474L383.372 173.221L386.557 176.131" stroke="#101828" stroke-width="2.13" stroke-linecap="round" stroke-linejoin="round"/>
<path d="M383.327 168.966L385.391 171.429L388.486 173.892" fill="#EC4A0A"/>
<path d="M383.327 168.966L385.391 171.429L388.486 173.892" stroke="#101828" stroke-width="2.13" stroke-linecap="round" stroke-linejoin="round"/>
<path fill-rule="evenodd" clip-rule="evenodd" d="M384.179 152.217L390.684 152.576C391.805 152.62 392.702 153.516 392.792 154.591L394.542 175.594C394.631 176.803 393.689 177.878 392.433 177.923L385.48 178.147C384.269 178.192 383.237 177.251 383.147 176.087L381.846 154.501C381.801 153.203 382.833 152.128 384.179 152.217Z" fill="#101828" stroke="#101828" stroke-width="2.13" stroke-linecap="round" stroke-linejoin="round"/>
<path d="M384.583 152.217L385.57 176.176" stroke="white" stroke-width="2.13" stroke-linecap="round" stroke-linejoin="round"/>
<path fill-rule="evenodd" clip-rule="evenodd" d="M396.292 183.118L395.529 172.594C395.529 172.594 391.94 168.787 390.46 168.474C388.979 168.115 388.8 169.459 389.877 170.489C390.953 171.564 391.94 173.445 391.94 173.445L389.832 178.057" fill="#EC4A0A"/>
<path d="M396.292 183.118L395.529 172.594C395.529 172.594 391.94 168.787 390.46 168.474C388.979 168.115 388.8 169.459 389.877 170.489C390.953 171.564 391.94 173.445 391.94 173.445L389.832 178.057" stroke="#101828" stroke-width="2.13" stroke-linecap="round" stroke-linejoin="round"/>
<path fill-rule="evenodd" clip-rule="evenodd" d="M438.056 190.462C428.636 195.254 428.68 200.494 428.68 200.494L405.488 212.048C405.488 212.048 400.419 207.435 392.793 201.031C386.064 206.494 376.778 209.137 368.209 208.778C368.254 209.629 368.254 210.48 368.165 211.331C368.703 211.51 369.286 211.689 369.779 211.958C369.241 211.689 368.703 211.465 368.165 211.331C367.716 216.929 364.935 221.497 361.122 225.482C369.331 232.424 379.021 239.32 388.755 243.261C413.518 253.248 429.353 250.068 429.353 250.068L479.013 204.211C479.013 204.211 454.385 182.177 438.056 190.462Z" fill="#EC4A0A" stroke="#101828" stroke-width="2.13" stroke-linecap="round" stroke-linejoin="round"/>
<path fill-rule="evenodd" clip-rule="evenodd" d="M437.607 190.462C428.187 195.254 428.232 200.494 428.232 200.494L405.039 212.048C405.039 212.048 399.97 207.435 392.344 201.031C385.615 206.494 376.329 209.137 367.761 208.778C367.806 209.629 367.806 210.48 367.716 211.331C368.254 211.51 368.837 211.689 369.331 211.958C368.793 211.689 368.254 211.465 367.716 211.331C367.267 216.929 364.486 221.497 360.673 225.482C368.882 232.424 378.572 239.32 388.307 243.261C413.069 253.248 428.905 250.068 428.905 250.068L478.565 204.211C478.565 204.211 453.936 182.177 437.607 190.462Z" fill="#EC4A0A" stroke="#101828" stroke-width="2.13" stroke-linecap="round" stroke-linejoin="round"/>
<path fill-rule="evenodd" clip-rule="evenodd" d="M315.544 227.184C314.647 223.601 315.544 220.467 318.684 218.228C321.824 216.436 326.31 215.988 328.553 213.301C333.488 209.271 329.899 200.762 334.834 197.627C344.703 190.91 348.292 201.658 354.123 208.823C356.95 212.047 363.05 209.808 368.209 211.331C368.299 210.525 368.299 209.674 368.254 208.778C367.447 208.734 366.594 208.689 365.787 208.599C366.594 208.689 367.402 208.734 368.254 208.778C368.209 208.062 368.165 207.345 368.075 206.584C368.165 207.345 368.254 208.062 368.254 208.778C376.822 209.092 386.108 206.494 392.837 201.031C374.983 185.984 343.088 160.86 329.944 161.891C311.282 163.324 286.116 272.952 286.295 273.893C287.731 280.834 292.845 268.474 301.368 262.384C309.892 256.293 310.071 259.965 311.641 256.248C313.211 252.531 309.174 247.65 313.66 242.052C316.307 238.783 318.639 235.782 320.793 232.961C318.415 231.528 316.351 229.826 315.544 227.184Z" fill="#EC4A0A" stroke="#101828" stroke-width="2.13" stroke-linecap="round" stroke-linejoin="round"/>
<path fill-rule="evenodd" clip-rule="evenodd" d="M354.123 208.823C348.292 201.658 344.703 190.91 334.834 197.627C329.899 200.762 333.488 209.271 328.553 213.301C326.31 215.988 321.824 216.436 318.684 218.228C315.544 220.467 314.647 223.602 315.544 227.184C316.351 229.826 318.415 231.528 320.793 232.961C336.628 212.137 339.32 203.897 339.32 203.897C339.32 203.897 348.426 214.735 361.166 225.482C364.935 221.497 367.716 216.884 368.209 211.331C363.05 209.808 356.95 212.048 354.123 208.823Z" fill="#101828" stroke="#101828" stroke-width="2.13" stroke-linecap="round" stroke-linejoin="round"/>
<path fill-rule="evenodd" clip-rule="evenodd" d="M439.716 237.439L408.359 211.958C408.359 211.958 316.621 206.002 299.036 220.377C281.495 234.752 332.86 361.085 333.667 361.891C339.948 367.803 336.404 351.95 340.621 339.993C344.837 328.036 347.574 331.529 346.542 326.782C346.452 326.423 346.363 326.065 346.183 325.752C341.742 324.229 337.256 322.706 332.95 320.781C326.221 317.646 327.566 309.585 329.809 303.315C332.052 297.493 325.323 294.806 323.08 289.88C320.389 284.954 326.221 280.476 328.912 275.55C332.052 269.728 326.669 265.25 323.08 259.428C320.389 254.95 324.875 249.128 330.258 248.68C344.523 247.919 361.121 251.77 371.753 261.712C385.256 263.145 400.778 263.503 414.101 260.413C445.727 253.114 439.716 237.439 439.716 237.439Z" fill="#EC4A0A" stroke="#101828" stroke-width="2.13" stroke-linecap="round" stroke-linejoin="round"/>
<path fill-rule="evenodd" clip-rule="evenodd" d="M330.348 248.68C324.965 249.128 320.479 254.95 323.17 259.428C326.759 265.25 332.142 269.728 329.002 275.55C326.31 280.476 320.479 284.954 323.17 289.88C325.413 294.807 332.142 297.493 329.899 303.315C327.656 309.585 326.31 317.646 333.039 320.781C337.346 322.706 341.787 324.229 346.273 325.752C344.523 321.676 338.198 319.303 338.736 311.287C341.608 268.564 338.826 255.801 338.826 255.801C338.826 255.801 353.406 259.741 371.843 261.712C361.166 251.77 344.613 247.919 330.348 248.68Z" fill="#101828" stroke="#101828" stroke-width="2.13" stroke-linecap="round" stroke-linejoin="round"/>
<path fill-rule="evenodd" clip-rule="evenodd" d="M471.701 201.12C479.282 198.254 495.836 189.79 495.836 189.79L485.518 182.267C485.518 182.267 486.774 179.49 486.864 177.117C486.953 174.743 487.133 172.594 487.133 172.594C487.133 172.594 516.336 185.984 515.08 190.865C513.824 195.791 477.892 216.705 463.626 222.348C459.006 224.184 456.807 215.899 456.807 215.899C456.807 215.899 466.542 203.091 471.701 201.12Z" fill="#EC4A0A" stroke="#101828" stroke-width="2.13" stroke-linecap="round" stroke-linejoin="round"/>
<path fill-rule="evenodd" clip-rule="evenodd" d="M486.908 169.907L489.017 175.325C489.286 176.042 488.927 176.848 488.209 177.117C487.492 177.385 486.684 177.027 486.415 176.311L484.307 170.892C484.037 170.175 484.396 169.369 485.114 169.101C485.832 168.832 486.639 169.19 486.908 169.907Z" fill="#EC4A0A" stroke="#101828" stroke-width="2.13" stroke-linecap="round" stroke-linejoin="round"/>
<path fill-rule="evenodd" clip-rule="evenodd" d="M488.209 171.34C488.209 169.101 490.093 167.309 492.381 167.309C494.669 167.309 496.553 169.101 496.553 171.34C496.553 173.579 494.669 175.37 492.381 175.37C490.049 175.37 488.209 173.534 488.209 171.34Z" fill="#101828" stroke="#101828" stroke-width="2.13" stroke-linecap="round" stroke-linejoin="round"/>
<path fill-rule="evenodd" clip-rule="evenodd" d="M410.019 212.988L385.66 192.03L366.953 200.807L346.452 211.555L372.606 212.003L384.897 268.788C384.897 268.788 428.097 266.414 435.32 254.502C442.049 243.44 443.08 236.051 443.08 236.051L410.019 212.988Z" fill="#FFF6ED" stroke="#101828" stroke-width="2.13" stroke-linecap="round" stroke-linejoin="round"/>
<path fill-rule="evenodd" clip-rule="evenodd" d="M440.523 188.85L430.654 192.074L428.142 199.822L460.979 223.512L469.278 213.973L475.2 200.449L470.131 197.493C470.131 197.493 459.454 197.941 457.121 196.597C453.981 194.806 453.533 189.88 453.533 189.88L448.06 188.536C445.548 187.954 442.946 188.044 440.523 188.85Z" fill="#FFF6ED" stroke="#101828" stroke-width="2.13" stroke-linecap="round" stroke-linejoin="round"/>
<path d="M372.785 211.6L400.778 210.749" stroke="#101828" stroke-width="2.13" stroke-linecap="round" stroke-linejoin="round"/>
<path fill-rule="evenodd" clip-rule="evenodd" d="M469.189 197.135L473.181 188.178C473.181 188.178 469.144 184.103 466.363 185.357C464.837 186.029 460.621 188.492 458.692 190.373C457.077 191.94 454.878 191.671 454.878 191.671L468.336 197.045" fill="#9C2A10"/>
<path d="M319.716 241.47C321.51 250.561 332.77 254.188 340.127 256.248" stroke="#101828" stroke-width="2.13" stroke-linecap="round" stroke-linejoin="round"/>
<path d="M433.884 196.732C434.288 195.343 435.678 194.537 437.069 194.896C438.46 195.254 439.267 196.687 438.864 198.12C438.505 199.508 437.069 200.314 435.679 199.956C434.333 199.553 433.525 198.12 433.884 196.732Z" stroke="#101828" stroke-width="2.13" stroke-linecap="round" stroke-linejoin="round"/>
<path d="M447.118 194.672C447.477 193.283 448.957 192.477 450.392 192.88C451.828 193.283 452.68 194.717 452.277 196.105C451.918 197.493 450.437 198.299 449.002 197.896C447.566 197.493 446.714 196.06 447.118 194.672Z" stroke="#101828" stroke-width="2.13" stroke-linecap="round" stroke-linejoin="round"/>
<path d="M446.221 208.151C446.579 206.897 447.97 206.226 449.361 206.584C450.751 206.987 451.604 208.286 451.29 209.54C450.931 210.794 449.54 211.465 448.15 211.107C446.759 210.704 445.907 209.405 446.221 208.151Z" stroke="#101828" stroke-width="2.13" stroke-linecap="round" stroke-linejoin="round"/>
<path d="M462.46 204.255C462.819 202.957 464.209 202.24 465.6 202.598C466.991 202.957 467.798 204.345 467.439 205.644C467.08 206.942 465.69 207.659 464.299 207.301C462.953 206.897 462.101 205.554 462.46 204.255Z" stroke="#101828" stroke-width="2.13" stroke-linecap="round" stroke-linejoin="round"/>
<path d="M458.288 218.362C458.602 217.198 459.858 216.571 461.114 216.884C462.37 217.242 463.133 218.452 462.819 219.571C462.505 220.735 461.249 221.362 459.993 221.049C458.736 220.735 457.974 219.526 458.288 218.362Z" stroke="#101828" stroke-width="2.13" stroke-linecap="round" stroke-linejoin="round"/>
<path d="M375.028 223.019C382.475 217.421 390.819 225.258 398.4 224.855C405.039 224.452 405.398 218.138 412.531 219.123" stroke="#101828" stroke-width="2.13" stroke-linecap="round" stroke-linejoin="round"/>
<path d="M378.617 239.589C379.065 236.544 386.602 237.529 388.979 237.708C395.125 238.201 402.662 240.53 408.538 238.246C411.723 237.036 413.652 234.484 416.434 232.737C418.049 231.752 424.822 229.737 425.72 230.006" stroke="#101828" stroke-width="2.13" stroke-linecap="round" stroke-linejoin="round"/>
<path d="M383.551 262.428C387.903 256.114 405.892 259.965 412.665 258.443C421.772 256.383 430.654 244.65 435.365 237.798" stroke="#101828" stroke-width="2.13" stroke-linecap="round" stroke-linejoin="round"/>
<path d="M405.039 212.406C415.357 222.661 440.344 240.53 440.344 240.53" stroke="#101828" stroke-width="2.13" stroke-linecap="round" stroke-linejoin="round"/>
<path d="M376.374 197.403C376.419 197.18 377.63 198.523 378.303 198.926C380.456 200.18 382.475 200.897 384.09 202.822C388.037 207.614 394.766 210.57 400.822 210.704" stroke="#101828" stroke-width="2.13" stroke-linecap="round" stroke-linejoin="round"/>
<path d="M361.705 204.031C366.729 203.763 367.492 211.197 372.83 211.6" stroke="#101828" stroke-width="2.13" stroke-linecap="round" stroke-linejoin="round"/>
<path d="M441.69 243.619C509.338 207.704 556.441 140.708 556.441 140.708" stroke="#101828" stroke-width="2.13" stroke-linecap="round" stroke-linejoin="round"/>
<path d="M285.667 233.991C315.364 250.247 350.624 263.996 383.551 262.339" stroke="#101828" stroke-width="2.13" stroke-linecap="round" stroke-linejoin="round"/>
<path d="M552.583 149.754C548.86 147.65 547.738 141.246 542.849 140.753C541.503 140.619 538.991 141.156 539.08 142.992C539.215 146.53 546.034 149.396 549.219 149.127C550.878 148.993 552.314 147.515 553.839 146.933C554.512 146.664 559.312 145.679 559.761 146.306C560.568 147.426 555.006 151.098 552.583 149.754Z" stroke="#101828" stroke-width="2.13" stroke-linecap="round" stroke-linejoin="round"/>
<path d="M468.381 183.431C469.144 183.566 469.951 183.476 470.714 183.207C471.073 183.073 471.432 182.894 471.835 182.804" stroke="#101828" stroke-width="2.13" stroke-linecap="round" stroke-linejoin="round"/>
<path d="M465.151 176.579C467.059 176.579 468.606 175.036 468.606 173.131C468.606 171.227 467.059 169.683 465.151 169.683C463.244 169.683 461.697 171.227 461.697 173.131C461.697 175.036 463.244 176.579 465.151 176.579Z" fill="#101828" stroke="#101828" stroke-width="2.13" stroke-linecap="round" stroke-linejoin="round"/>
<path d="M472.643 181.237C474.551 181.237 476.097 179.693 476.097 177.789C476.097 175.884 474.551 174.34 472.643 174.34C470.735 174.34 469.189 175.884 469.189 177.789C469.189 179.693 470.735 181.237 472.643 181.237Z" fill="#101828" stroke="#101828" stroke-width="2.13" stroke-linecap="round" stroke-linejoin="round"/>
<path d="M468.426 174.295L470.176 175.37" stroke="#101828" stroke-width="2.13" stroke-linecap="round" stroke-linejoin="round"/>
<path d="M476.007 178.55L481.66 181.416" stroke="#101828" stroke-width="2.13" stroke-linecap="round" stroke-linejoin="round"/>
<path fill-rule="evenodd" clip-rule="evenodd" d="M110.938 375.595L90.9308 429.559C90.9308 429.559 67.9177 431.708 64.957 433.141C61.9962 434.574 79.4467 433.365 79.4467 433.365C79.4467 433.365 68.8149 435.47 66.0784 437.306C64.6878 438.247 85.5028 437.754 85.5028 437.754C85.5028 437.754 62.5345 442.277 72.8971 443.934C77.5626 444.695 84.157 441.426 89.3158 441.337C95.5962 441.247 100.306 443.8 104.075 438.739C110.938 429.469 129.062 395.927 131.349 378.506C132.516 370.087 110.938 375.595 110.938 375.595Z" fill="#054F31" stroke="#101828" stroke-width="2.13" stroke-linecap="round" stroke-linejoin="round"/>
<path fill-rule="evenodd" clip-rule="evenodd" d="M267.14 332.111C266.467 331.394 264.583 331.439 264.673 330.454C265.121 325.975 267.858 315.989 271.267 312.585C274.004 309.854 271.312 319.527 273.196 318.9C276.067 317.959 279.746 311.421 280.912 311.197C282.976 310.794 286.834 312.496 288.897 312.854C289.749 312.988 292.082 312.361 292.755 312.854C292.979 313.033 293.114 313.391 293.024 313.66C292.665 315.183 287.013 321.99 285.847 324.139C280.06 334.798 279.566 345.77 267.14 332.111Z" fill="#054F31" stroke="#101828" stroke-width="2.13" stroke-linecap="round" stroke-linejoin="round"/>
<path fill-rule="evenodd" clip-rule="evenodd" d="M285.264 434.977L337.794 437.799L347.215 434.261L345.42 401.256L339.364 388.716L330.078 415.004L289.032 410.123" fill="#054F31"/>
<path d="M285.264 434.977L337.794 437.799L347.215 434.261L345.42 401.256L339.364 388.716L330.078 415.004L289.032 410.123" stroke="#101828" stroke-width="2.13" stroke-linecap="round" stroke-linejoin="round"/>
<path fill-rule="evenodd" clip-rule="evenodd" d="M334.475 439.635L347.933 441.516L351.252 440.71L348.426 381.372L345.376 379.805C345.376 379.805 338.692 376.356 337.121 390.06C336.538 394.941 344.613 409.988 344.613 409.988L345.241 424.409L334.475 439.635Z" fill="#101828" stroke="#101828" stroke-width="2.13" stroke-linecap="round" stroke-linejoin="round"/>
<path fill-rule="evenodd" clip-rule="evenodd" d="M282.437 337.977C277.817 354.413 268.307 380.342 247.492 391.269C226.677 402.241 208.867 385.492 208.867 385.492L137.585 400.181L136.733 369.146L125.787 396.643L111.746 426.961C111.746 426.961 89.5402 427.812 88.0149 417.557C86.4897 407.301 102.55 382.133 102.55 382.133C102.55 382.133 102.908 381.059 103.626 379.178C107.305 369.281 120.493 337.395 139.738 329.827C147.275 326.871 152.568 325.617 157.009 325.304C166.071 324.587 171.634 327.543 185.675 327.05L239.776 356.294L263.237 324.901C263.192 324.901 283.649 333.544 282.437 337.977Z" fill="#101828" stroke="#101828" stroke-width="2.13" stroke-linecap="round" stroke-linejoin="round"/>
<path fill-rule="evenodd" clip-rule="evenodd" d="M144.807 340.485C140.052 341.291 134.535 342.232 131.843 346.173C127.94 351.95 133.099 359.921 129.555 362.384C127.492 363.817 125.518 361.22 122.288 362.474C118.43 363.951 118.878 368.385 114.034 375.416C111.88 378.506 108.785 382.984 106.273 382.447C105.106 382.223 104.254 380.924 103.671 379.222C107.349 369.325 120.538 337.44 139.783 329.872C147.32 326.916 152.613 325.662 157.054 325.349C160.508 329.827 153.196 339.052 144.807 340.485Z" fill="#FFF6ED"/>
<path fill-rule="evenodd" clip-rule="evenodd" d="M187.02 303.808C190.834 291.537 185.809 282.043 168.269 284.282C166.206 284.551 163.783 284.775 161.989 285.85C141.264 297.538 145.032 320.825 145.032 320.825L172.935 319.392L180.561 310.033L187.02 303.808Z" fill="#FFF6ED"/>
<path fill-rule="evenodd" clip-rule="evenodd" d="M165.443 312.093L165.622 322.885L158.804 327.812L178.138 344.023L185.854 329.603L182.265 315.81L182.579 311.018L165.443 312.093Z" fill="#054F31" stroke="#101828" stroke-width="2.13" stroke-linecap="round" stroke-linejoin="round"/>
<path fill-rule="evenodd" clip-rule="evenodd" d="M163.245 305.644C162.482 302.957 162.751 297.538 163.424 295.075C164.635 290.642 165.892 292.567 170.422 291.313C175.492 289.925 177.914 287.91 181.234 291.94C182.535 293.508 186.348 299.374 186.931 301.524C188.994 309.092 185.002 316.795 177.959 318.721C173.473 319.975 169.794 319.571 166.475 316.392C164.635 314.645 164.007 308.376 163.245 305.644Z" fill="#054F31" stroke="#101828" stroke-width="2.13" stroke-linecap="round" stroke-linejoin="round"/>
<path fill-rule="evenodd" clip-rule="evenodd" d="M172.576 303.539C172.217 302.509 173.204 301.255 174.729 300.718C176.254 300.225 177.779 300.673 178.138 301.703C178.497 302.733 177.51 303.987 175.985 304.524C174.46 305.017 172.935 304.569 172.576 303.539Z" fill="#FFF6ED" stroke="#101828" stroke-width="2.13" stroke-linecap="round" stroke-linejoin="round"/>
<path fill-rule="evenodd" clip-rule="evenodd" d="M182.579 300.763C182.221 299.733 183.207 298.479 184.733 297.941C186.258 297.449 187.783 297.897 188.142 298.927C188.501 299.957 187.514 301.21 185.989 301.748C184.419 302.24 182.893 301.793 182.579 300.763Z" fill="#FFF6ED" stroke="#101828" stroke-width="2.13" stroke-linecap="round" stroke-linejoin="round"/>
<path fill-rule="evenodd" clip-rule="evenodd" d="M167.013 324.139L165.892 313.123C165.892 313.123 174.819 311.152 176.927 313.481C179.035 315.81 176.792 323.378 176.792 323.378L171.454 324.184" fill="#054F31"/>
<path fill-rule="evenodd" clip-rule="evenodd" d="M157.906 304.524C161.495 310.346 163.604 299.822 163.604 299.822L177.959 296.419L178.542 291.09L182.31 297.27L187.424 297.135C187.424 297.135 183.342 286.969 182.355 285.984C178.183 281.999 171.006 282.222 166.43 286.029C162.572 289.298 153.51 296.777 157.906 304.524Z" fill="#FFF6ED"/>
<path fill-rule="evenodd" clip-rule="evenodd" d="M164.635 306.45C163.649 305.241 161.63 306.45 161.226 307.614C160.463 310.033 162.303 314.153 166.116 311.69" fill="#054F31"/>
<path d="M164.635 306.45C163.649 305.241 161.63 306.45 161.226 307.614C160.463 310.033 162.303 314.153 166.116 311.69" stroke="#101828" stroke-width="2.13" stroke-linecap="round" stroke-linejoin="round"/>
<path fill-rule="evenodd" clip-rule="evenodd" d="M177.151 303.718C176.434 304.211 175.492 304.077 175.133 303.494C174.774 302.912 175.043 302.017 175.761 301.569C176.478 301.076 177.421 301.21 177.779 301.793C178.183 302.375 177.869 303.226 177.151 303.718Z" fill="#101828" stroke="#101828" stroke-width="2.13" stroke-linecap="round" stroke-linejoin="round"/>
<path fill-rule="evenodd" clip-rule="evenodd" d="M185.45 300.897C184.957 300.18 185.092 298.971 187.02 298.613C187.693 298.479 187.649 298.837 188.142 299.554C188.635 300.27 187.963 301.076 187.379 301.479C186.796 301.882 185.899 301.614 185.45 300.897Z" fill="#101828" stroke="#101828" stroke-width="2.13" stroke-linecap="round" stroke-linejoin="round"/>
<path d="M163.649 308.824C163.738 308.913 163.783 309.003 163.872 309.092" stroke="#101828" stroke-width="2.13" stroke-linecap="round" stroke-linejoin="round"/>
<path fill-rule="evenodd" clip-rule="evenodd" d="M176.254 307.301C177.241 309.361 180.067 308.644 182.086 309.361C182.086 309.361 180.516 312.809 177.106 310.973C174.908 309.809 176.254 307.301 176.254 307.301Z" fill="#101828" stroke="#101828" stroke-width="2.13" stroke-linecap="round" stroke-linejoin="round"/>
<path fill-rule="evenodd" clip-rule="evenodd" d="M180.157 302.733C182.804 302.285 185.136 300.449 185.944 301.748C187.021 303.494 183.521 306.316 182.983 306.405" fill="#054F31"/>
<path d="M180.157 302.733C182.804 302.285 185.136 300.449 185.944 301.748C187.021 303.494 183.521 306.316 182.983 306.405" stroke="#101828" stroke-width="2.13" stroke-linecap="round" stroke-linejoin="round"/>
<path d="M173.697 289.164C172.441 291.493 172.71 295.21 172.262 297.807" stroke="#101828" stroke-width="2.13" stroke-linecap="round" stroke-linejoin="round"/>
<path fill-rule="evenodd" clip-rule="evenodd" d="M301.996 436.366L300.067 436.276L210.662 432.066C210.662 432.066 179.529 433.231 160.643 429.379C155.215 428.26 150.819 426.737 148.441 424.632C137.809 415.183 137.899 394.404 137.899 394.404L193.346 382.133L200.523 390.194L300.426 410.436L301.996 436.366Z" fill="#EC4A0A" stroke="#101828" stroke-width="2.13" stroke-linecap="round" stroke-linejoin="round"/>
<path fill-rule="evenodd" clip-rule="evenodd" d="M300.067 436.276L210.662 432.066C210.662 432.066 179.529 433.231 160.643 429.38C161.495 422.617 163.559 416.348 168.269 414.198C173.697 411.735 177.69 416.975 188.68 418.452C202.677 420.333 204.381 412.855 221.159 412.899C235.2 412.899 247.402 418.094 250.049 419.303C258.303 422.931 258.796 425.08 264.807 426.245C277.009 428.663 282.527 421.363 289.75 424.05C294.28 425.663 297.959 430.678 300.067 436.276Z" fill="#101828" stroke="#101828" stroke-width="2.13" stroke-linecap="round" stroke-linejoin="round"/>
<path fill-rule="evenodd" clip-rule="evenodd" d="M206.176 420.871L204.202 437.978L209.72 448.323L240.897 448.86L253.099 443.755L227.663 432.246L232.149 417.915" fill="#054F31"/>
<path d="M206.176 420.871L204.202 437.978L209.72 448.323L240.897 448.86L253.099 443.755L227.663 432.246L232.149 417.915" stroke="#101828" stroke-width="2.13" stroke-linecap="round" stroke-linejoin="round"/>
<path fill-rule="evenodd" clip-rule="evenodd" d="M240.224 427.857L200.792 427.678L206.355 399.017L176.03 393.508C176.03 393.508 199.447 348.949 214.43 336.007C215.462 335.111 216.449 334.305 217.435 333.544C230.893 323.199 240.987 324.587 247.222 335.201C247.85 336.276 248.299 338.022 248.613 340.216C251.394 361.354 240.224 427.857 240.224 427.857Z" fill="#EC4A0A" stroke="#101828" stroke-width="2.13" stroke-linecap="round" stroke-linejoin="round"/>
<path fill-rule="evenodd" clip-rule="evenodd" d="M186.572 403.181C186.751 403.853 190.295 403.137 189.622 403.002C186.123 402.42 182.849 400.853 179.574 399.464C176.703 398.255 173.742 399.957 172.217 397.27C166.834 387.955 177.196 386.343 183.028 384.193C188.277 382.223 199.312 369.863 205.189 373.848C207.746 375.595 205.054 381.954 204.426 383.969C202.093 391.493 184.643 396.15 186.572 403.181Z" fill="#9C2A10"/>
<path fill-rule="evenodd" clip-rule="evenodd" d="M202.677 434.485L199.626 447.696L200.12 451.054L259.604 453.338L261.443 450.472C261.443 450.472 265.435 444.113 251.933 441.381C247.133 440.396 230.849 446.845 230.849 446.845L217.839 446.039L202.677 434.485Z" fill="#101828" stroke="#101828" stroke-width="2.13" stroke-linecap="round" stroke-linejoin="round"/>
<path d="M209.092 375.461L206.086 399.554" stroke="#101828" stroke-width="2.13" stroke-linecap="round" stroke-linejoin="round"/>
<path fill-rule="evenodd" clip-rule="evenodd" d="M205.592 439.948L241.974 446.845L205.592 439.948Z" fill="#EC4A0A"/>
<path d="M205.592 439.948L241.974 446.845" stroke="#101828" stroke-width="2.13" stroke-linecap="round" stroke-linejoin="round"/>
<path fill-rule="evenodd" clip-rule="evenodd" d="M338.871 435.156L344.568 404.301L338.871 435.156Z" fill="#EC4A0A"/>
<path d="M338.871 435.156L344.568 404.301" stroke="#101828" stroke-width="2.13" stroke-linecap="round" stroke-linejoin="round"/>
<path d="M142.968 360.458C141.936 364.981 138.617 367.758 136.508 371.699L142.968 360.458Z" fill="#FFF6ED"/>
<path d="M142.968 360.458C141.936 364.981 138.617 367.758 136.508 371.699" stroke="#FFF6ED" stroke-width="2.13" stroke-linecap="round" stroke-linejoin="round"/>
<path d="M91.7831 415.945C96.8972 418.855 99.1401 420.602 105.062 420.871L91.7831 415.945Z" fill="#FFF6ED"/>
<path d="M91.7831 415.945C96.8972 418.855 99.1401 420.602 105.062 420.871" stroke="#FFF6ED" stroke-width="2.13" stroke-linecap="round" stroke-linejoin="round"/>
<path d="M265.929 331.484C269.563 333.32 272.434 336.276 275.843 338.515L265.929 331.484Z" fill="#FFF6ED"/>
<path d="M265.929 331.484C269.563 333.32 272.434 336.276 275.843 338.515" stroke="#FFF6ED" stroke-width="2.13" stroke-linecap="round" stroke-linejoin="round"/>
<path fill-rule="evenodd" clip-rule="evenodd" d="M271.536 321.766C271.133 320.691 273.376 293.821 274.991 292.119C277.682 289.209 289.346 293.553 289.705 294.627C291.185 299.106 287.192 324.274 285.084 325.214C282.931 326.11 272.703 324.811 271.536 321.766Z" fill="#101828" stroke="#101828" stroke-width="2.13" stroke-linecap="round" stroke-linejoin="round"/>
<path fill-rule="evenodd" clip-rule="evenodd" d="M278.535 310.212C278.49 313.033 281.585 313.974 283.379 319.661C283.783 320.87 274.677 324.408 274.811 325.393C275.26 329.155 283.649 329.021 283.649 329.021C283.649 329.021 291.32 320.915 293.742 316.347C296.613 311.018 286.385 301.703 285.712 303.405C285.219 304.704 289.301 309.137 289.301 310.257C289.301 311.152 290.647 315.183 289.705 315.183C288.942 315.183 289.301 313.705 289.166 312.988C288.897 311.734 283.918 304.121 282.437 306.092C280.822 308.241 285.892 311.466 286.116 313.794C286.206 314.78 286.564 317.735 286.116 316.84C286.071 316.84 278.669 303.405 278.535 310.212Z" fill="#054F31" stroke="#101828" stroke-width="2.13" stroke-linecap="round" stroke-linejoin="round"/>
<path fill-rule="evenodd" clip-rule="evenodd" d="M269.652 323.871C269.832 322.438 283.828 320.378 284.546 319.975C290.467 316.526 282.662 330.767 280.06 331.036" fill="#054F31"/>
<path d="M164.591 310.66C166.071 315.093 165.936 318.228 168.449 322.035C170.243 324.722 174.46 326.065 177.331 326.379C180.516 326.692 183.163 327.722 186.437 327.05C194.512 325.438 201.824 318.049 209.944 317.467C221.921 316.616 234.482 321.811 246.235 319.079C252.875 317.511 264.045 299.598 271.312 309.271" stroke="#101828" stroke-width="2.13" stroke-linecap="round" stroke-linejoin="round"/>
<path d="M189.443 307.256C190.071 309.182 194.826 314.869 196.755 315.675C199.492 316.84 201.869 314.556 204.292 313.839C208.194 312.72 213.892 314.556 216.628 317.288" stroke="#101828" stroke-width="2.13" stroke-linecap="round" stroke-linejoin="round"/>
<path d="M276.875 296.374C275.663 295.523 276.471 293.956 277.727 294.09C279.073 294.224 278.624 297.628 276.875 296.374Z" fill="#FFF6ED" stroke="#FFF6ED" stroke-width="2.13" stroke-linecap="round" stroke-linejoin="round"/>
<path d="M276.695 300.539C276.292 299.285 277.682 298.3 278.176 299.419C278.669 300.628 277.099 301.793 276.695 300.539Z" fill="#FFF6ED" stroke="#FFF6ED" stroke-width="2.13" stroke-linecap="round" stroke-linejoin="round"/>
<path d="M281.047 297.135C280.374 297.225 280.419 295.792 281.002 295.433C282.258 294.762 282.931 296.867 281.047 297.135Z" fill="#FFF6ED" stroke="#FFF6ED" stroke-width="2.13" stroke-linecap="round" stroke-linejoin="round"/>
<path d="M164.456 310.481C164.142 310.704 163.873 310.257 163.783 309.898C163.469 308.689 166.744 308.779 164.456 310.481Z" stroke="#101828" stroke-width="2.13" stroke-linecap="round" stroke-linejoin="round"/>
<path d="M188.949 307.032C187.29 307.167 189.757 303.047 189.308 306.226C189.219 306.764 189.308 306.987 188.949 307.032Z" stroke="#101828" stroke-width="2.13" stroke-linecap="round" stroke-linejoin="round"/>
<path d="M107.708 370.221C109.996 373.625 108.83 378.372 108.695 382.447C108.561 386.119 103.043 390.239 96.9869 391.762" fill="#FFF6ED"/>
<path d="M107.708 370.221C109.996 373.625 108.83 378.372 108.695 382.447C108.561 386.119 103.043 390.239 96.9869 391.762" stroke="#FFF6ED" stroke-width="2.13" stroke-linecap="round" stroke-linejoin="round"/>
<path d="M138.886 389.209C140.77 385.447 146.378 390.015 147.903 391.762L138.886 389.209Z" fill="#FFF6ED"/>
<path d="M138.886 389.209C140.77 385.447 146.378 390.015 147.903 391.762" stroke="#FFF6ED" stroke-width="2.13" stroke-linecap="round" stroke-linejoin="round"/>
<path fill-rule="evenodd" clip-rule="evenodd" d="M214.475 422.348C213.039 429.603 200.164 443.307 200.164 443.307C200.164 443.307 198.863 448.323 191.282 449.756C190.699 449.89 190.071 449.935 189.353 450.024C188.052 450.159 178.497 453.114 169.929 453.114C142.34 453.114 133.503 443.62 133.503 443.62C133.503 443.62 131.798 443.083 129.779 442.68C127.536 442.277 124.979 442.053 124.037 443.083C121.884 445.412 120.987 448.905 120.135 447.785C119.551 447.024 118.834 443.62 121.121 440.351C122.378 438.515 127.222 435.873 127.222 435.873L127.536 429.693L123.364 411.466C123.364 411.466 130.273 406.271 132.336 408.287C134.4 410.302 128.792 417.109 131.664 419.617C134.535 422.125 138.662 422.438 138.662 422.438C138.662 422.438 142.295 418.99 141.129 416.706C139.963 414.467 139.873 409.809 139.873 409.809C139.873 409.809 148.037 406.361 149.428 407.436C150.819 408.511 145.435 414.153 145.435 414.153C145.435 414.153 152.927 412.138 153.421 416.213C153.645 417.825 153.286 422.975 153.286 422.975C153.6 423.065 154.721 423.379 158.176 424.319C160.553 424.991 162.662 425.931 164.366 426.827C164.77 427.275 165.398 427.588 166.116 427.857C167.776 428.887 168.718 429.693 168.718 429.693L171.185 428.663C171.185 428.663 168.269 428.618 166.116 427.857C165.578 427.543 164.994 427.185 164.366 426.827C163.873 426.289 163.738 425.662 164.097 424.812C165.802 421.095 172.935 420.915 175.806 421.274C178.991 421.677 180.381 424.229 180.381 424.229C180.381 424.229 187.604 421.229 192.852 419.214C198.146 417.243 198.191 422.886 198.191 422.886L189.488 427.902C189.667 427.857 192.583 426.961 195.634 425.662C198.505 424.453 215.955 415.094 214.475 422.348Z" fill="#FD853A" stroke="#101828" stroke-width="2.13" stroke-linecap="round" stroke-linejoin="round"/>
<path fill-rule="evenodd" clip-rule="evenodd" d="M193.66 438.873C193.929 445.009 195.544 456.384 200.658 460.683C207.252 466.281 208.957 453.383 207.342 449.487C204.292 442.187 204.695 443.262 201.69 437.082" fill="#FD853A"/>
<path d="M193.66 438.873C193.929 445.009 195.544 456.384 200.658 460.683C207.252 466.281 208.957 453.383 207.342 449.487C204.292 442.187 204.695 443.262 201.69 437.082" stroke="#101828" stroke-width="2.13" stroke-linecap="round" stroke-linejoin="round"/>
<path fill-rule="evenodd" clip-rule="evenodd" d="M138.258 422.214C141.264 421.901 144.045 425.931 143.91 428.752C143.82 430.768 143.013 432.38 142.564 434.261" fill="#FD853A"/>
<path d="M138.258 422.214C141.264 421.901 144.045 425.931 143.91 428.752C143.82 430.768 143.013 432.38 142.564 434.261" stroke="#101828" stroke-width="2.13" stroke-linecap="round" stroke-linejoin="round"/>
<path fill-rule="evenodd" clip-rule="evenodd" d="M163.604 425.304C163.155 429.156 171.05 428.081 173.069 427.543C173.921 427.319 174.819 427.14 175.626 426.872C175.626 426.872 176.792 426.692 176.748 426.737C176.568 427.006 175.626 427.364 175.402 427.454C174.46 427.812 173.473 428.126 172.531 428.529C171.364 429.021 170.153 429.469 168.942 429.917C168 430.275 168.718 433.365 166.699 434.44" fill="#FD853A"/>
<path d="M163.604 425.304C163.155 429.156 171.05 428.081 173.069 427.543C173.921 427.319 174.819 427.14 175.626 426.872C175.626 426.872 176.792 426.692 176.748 426.737C176.568 427.006 175.626 427.364 175.402 427.454C174.46 427.812 173.473 428.126 172.531 428.529C171.364 429.021 170.153 429.469 168.942 429.917C168 430.275 168.718 433.365 166.699 434.44" stroke="#101828" stroke-width="2.13" stroke-linecap="round" stroke-linejoin="round"/>
<path fill-rule="evenodd" clip-rule="evenodd" d="M183.835 426.245C183.028 429.021 184.374 429.917 190.654 427.23L183.835 426.245Z" fill="#FD853A"/>
<path d="M183.835 426.245C183.028 429.021 184.374 429.917 190.654 427.23" stroke="#101828" stroke-width="2.13" stroke-linecap="round" stroke-linejoin="round"/>
<path fill-rule="evenodd" clip-rule="evenodd" d="M196.979 440.62C196.441 443.307 197.652 446.084 198.146 448.815C198.639 451.457 200.075 455.712 202.049 457.593C206.624 461.982 206.669 453.159 206.535 451.099" fill="#FD853A"/>
<path d="M196.979 440.62C196.441 443.307 197.652 446.084 198.146 448.815C198.639 451.457 200.075 455.712 202.049 457.593C206.624 461.982 206.669 453.159 206.535 451.099" stroke="#101828" stroke-width="2.13" stroke-linecap="round" stroke-linejoin="round"/>
<path fill-rule="evenodd" clip-rule="evenodd" d="M205.951 431.439L206.445 430.589L207.611 429.917L207.252 431.35L206.714 431.798L206.31 431.663" fill="#FFF6ED"/>
<path d="M205.951 431.439L206.445 430.589L207.611 429.917L207.252 431.35L206.714 431.798L206.31 431.663" stroke="#101828" stroke-width="2.13" stroke-linecap="round" stroke-linejoin="round"/>
<path fill-rule="evenodd" clip-rule="evenodd" d="M210.617 420.378C210.258 421.319 209.091 424.185 210.527 424.812C211.02 425.036 212.949 424.767 213.264 424.229C213.533 423.826 213.847 422.393 213.533 422.752C213.129 423.199 212.321 424.991 211.29 424.185C210.258 423.423 212.187 418.9 213.308 419.348C214.699 419.93 211.873 424.632 210.796 423.244C209.361 421.453 214.923 418.542 213.667 421.587C213.443 422.169 212.725 422.841 212.277 423.334" fill="#FFF6ED"/>
<path d="M210.617 420.378C210.258 421.319 209.091 424.185 210.527 424.812C211.02 425.036 212.949 424.767 213.264 424.229C213.533 423.826 213.847 422.393 213.533 422.752C213.129 423.199 212.321 424.991 211.29 424.185C210.258 423.423 212.187 418.9 213.308 419.348C214.699 419.93 211.873 424.632 210.796 423.244C209.361 421.453 214.923 418.542 213.667 421.587C213.443 422.169 212.725 422.841 212.277 423.334" stroke="#101828" stroke-width="2.13" stroke-linecap="round" stroke-linejoin="round"/>
<path d="M157.009 331.439C164.77 338.515 178.856 351.547 179.708 350.92C182.176 349.128 185.181 340.396 186.303 337.529" fill="#FFF6ED"/>
<path d="M157.009 331.439C164.77 338.515 178.856 351.547 179.708 350.92C182.176 349.128 185.181 340.396 186.303 337.529" stroke="#FFF6ED" stroke-width="2.13" stroke-linecap="round" stroke-linejoin="round"/>
<path d="M152.613 327.498C153.465 328.17 155.035 329.603 157.054 331.439" stroke="#101828" stroke-width="2.13" stroke-linecap="round" stroke-linejoin="round"/>
<path d="M204.606 287.373C206.131 277.207 207.925 266.459 214.699 258.667C219.14 253.517 225.286 250.247 230.849 246.306C243.14 237.574 252.74 225.124 258.034 211.017C262.295 199.687 263.821 187.596 266.916 175.908C270.011 164.219 275.125 152.486 284.68 145.052C289.974 140.932 296.344 138.379 302.849 136.678C317.428 132.871 333.039 133.229 347.394 137.663" stroke="#101828" stroke-width="2.13" stroke-linecap="round" stroke-linejoin="round"/>
<path d="M300.695 160.905C295.85 161.084 292.037 165.115 289.615 169.325C283.514 179.804 282.437 192.298 280.822 204.345C280.239 208.823 279.521 213.301 277.727 217.466" stroke="#101828" stroke-width="2.13" stroke-linecap="round" stroke-linejoin="round"/>
<path d="M243.185 205.464C238.565 216.391 230.983 226.826 219.903 231.08" stroke="#101828" stroke-width="2.13" stroke-linecap="round" stroke-linejoin="round"/>
<path d="M276.964 148.814L276.471 148.993L280.822 162.249C279.97 161.891 278.759 162.204 277.817 163.01C276.606 164.085 276.292 165.697 277.099 166.593C277.907 167.488 279.566 167.354 280.778 166.279C281.944 165.204 282.258 163.682 281.54 162.741L276.964 148.814Z" fill="#101828" stroke="#101828" stroke-width="2.13" stroke-linecap="round" stroke-linejoin="round"/>
<path d="M256.329 236.992C257.54 235.29 257.495 233.14 256.194 232.245C254.893 231.349 252.875 231.976 251.664 233.722C250.452 235.424 250.497 237.529 251.798 238.469C251.798 238.469 251.798 238.469 251.843 238.469L261.488 254.591L262.071 254.233L252.875 238.828C253.996 239.007 255.387 238.29 256.329 236.992Z" fill="#101828" stroke="#101828" stroke-width="2.13" stroke-linecap="round" stroke-linejoin="round"/>
<path d="M261.219 167.847L248.972 162.876L249.062 162.741L246.28 161.532L237.981 172.594L240.987 173.848L241.121 173.668L251.349 177.833C250.721 178.371 250.273 179.311 250.318 180.386C250.363 181.998 251.394 183.297 252.606 183.252C253.817 183.207 254.759 181.864 254.714 180.252C254.669 178.639 253.637 177.341 252.426 177.385C252.381 177.385 252.336 177.385 252.292 177.385L241.57 173.042L248.523 163.503L260.321 168.295C259.693 168.832 259.245 169.772 259.29 170.847C259.335 172.459 260.366 173.713 261.578 173.713C262.789 173.668 263.731 172.325 263.686 170.713C263.641 169.101 262.609 167.802 261.398 167.847C261.308 167.847 261.264 167.847 261.219 167.847Z" fill="#101828" stroke="#101828" stroke-width="2.13" stroke-linecap="round" stroke-linejoin="round"/>
<path d="M129.421 336.5C129.421 336.5 124.262 342.5 119.507 348.009C112.643 355.98 103.626 379.894 103.626 379.894" stroke="#101828" stroke-width="2.13" stroke-linecap="round" stroke-linejoin="round"/>
<path fill-rule="evenodd" clip-rule="evenodd" d="M248.568 340.216C246.684 342.187 244.486 343.486 242.916 343.127C239.865 342.5 240.404 336.141 236.321 334.753C232.508 333.454 229.862 338.38 224.972 337.933C222.146 337.664 219.32 335.783 217.391 333.499C230.849 323.154 240.942 324.542 247.178 335.156C247.806 336.32 248.254 338.022 248.568 340.216Z" fill="#101828" stroke="#101828" stroke-width="2.13" stroke-linecap="round" stroke-linejoin="round"/>
<path fill-rule="evenodd" clip-rule="evenodd" d="M191.282 449.756C190.699 449.89 190.071 449.935 189.353 450.024C188.052 450.159 178.497 453.114 169.929 453.114C142.34 453.114 133.503 443.62 133.503 443.62C133.503 443.62 131.798 443.083 129.779 442.68C129.69 440.933 129.959 439.411 130.901 438.829C133.323 437.261 140.052 442.322 141.757 443.62C143.731 445.098 143.776 445.457 144.942 445.904C148.396 447.203 150.505 444.874 154.407 445.591C157.234 446.128 157.009 447.517 159.791 448.367C163.649 449.532 166.026 447.472 172.351 445.68C178.228 444.024 182.445 442.814 185.989 444.471C188.097 445.457 190.026 447.472 191.282 449.756Z" fill="#101828" stroke="#101828" stroke-width="2.13" stroke-linecap="round" stroke-linejoin="round"/>
<path fill-rule="evenodd" clip-rule="evenodd" d="M274.632 422.304C273.779 424.229 268.755 424.229 265.48 422.438C264.583 421.945 262.923 421.05 262.923 419.885C262.968 418.005 267.454 415.497 270.998 416.93C273.376 417.915 275.305 420.781 274.632 422.304Z" fill="#101828" stroke="#101828" stroke-width="2.13" stroke-linecap="round" stroke-linejoin="round"/>
<path fill-rule="evenodd" clip-rule="evenodd" d="M185.406 415.721C183.746 415.855 182.445 413.571 182.893 412.586C183.432 411.377 186.796 411.332 187.424 412.586C187.918 413.571 186.931 415.586 185.406 415.721Z" fill="#101828" stroke="#101828" stroke-width="2.13" stroke-linecap="round" stroke-linejoin="round"/>
<path fill-rule="evenodd" clip-rule="evenodd" d="M231.028 341.112C230.849 339.948 232.015 338.739 233.316 338.515C234.796 338.291 236.456 339.5 236.411 340.799C236.366 341.784 235.335 342.59 234.393 342.814C233.002 343.127 231.207 342.366 231.028 341.112Z" fill="#101828" stroke="#101828" stroke-width="2.13" stroke-linecap="round" stroke-linejoin="round"/>
<path fill-rule="evenodd" clip-rule="evenodd" d="M323.17 271.699C323.619 268.519 318.729 265.026 316.082 266.145C313.346 267.31 312.673 273.535 315.275 275.281C317.652 276.893 322.722 274.699 323.17 271.699Z" fill="#101828" stroke="#101828" stroke-width="2.13" stroke-linecap="round" stroke-linejoin="round"/>
<path fill-rule="evenodd" clip-rule="evenodd" d="M325.548 301.882C325.234 301.121 326.221 300.091 326.759 300.18C327.387 300.27 327.836 301.882 327.252 302.375C326.849 302.688 325.817 302.464 325.548 301.882Z" fill="#101828" stroke="#101828" stroke-width="2.13" stroke-linecap="round" stroke-linejoin="round"/>
<path d="M471.028 204.121C470.804 204.614 470.579 205.151 470.445 205.688C470.31 206.136 470.176 206.584 469.951 206.987C469.682 207.345 469.323 207.659 468.92 207.883C467.933 208.554 466.901 209.092 465.824 209.584" stroke="white" stroke-width="2.13" stroke-linecap="round" stroke-linejoin="round"/>
<path d="M468.65 210.48C467.305 211.555 465.645 212.137 463.985 212.406C462.325 212.719 460.621 212.719 458.916 212.764" stroke="#101828" stroke-width="2.13" stroke-linecap="round" stroke-linejoin="round"/>
<path d="M439.806 204.255C439.895 204.927 438.819 206.36 438.236 206.674" stroke="#101828" stroke-width="2.13" stroke-linecap="round" stroke-linejoin="round"/>
<path d="M242.422 354.905C241.884 370.132 240.538 385.358 238.43 400.45" stroke="#101828" stroke-width="2.13" stroke-linecap="round" stroke-linejoin="round"/>
<path d="M238.295 356.517C238.474 359.428 238.564 362.339 238.519 365.295" stroke="#101828" stroke-width="2.13" stroke-linecap="round" stroke-linejoin="round"/>
<path d="M202.856 389.523C203.08 384.417 203.888 379.312 205.323 374.341" stroke="#101828" stroke-width="2.13" stroke-linecap="round" stroke-linejoin="round"/>
<path d="M276.202 408.958C282.348 409.899 288.538 410.66 294.729 411.153" stroke="#101828" stroke-width="2.13" stroke-linecap="round" stroke-linejoin="round"/>
<path d="M285.936 412.81C289.077 413.258 292.172 413.571 295.357 413.795" stroke="#101828" stroke-width="2.13" stroke-linecap="round" stroke-linejoin="round"/>
<path d="M143.731 397.27C143.462 398.255 143.327 399.24 143.327 400.226C143.327 400.718 143.372 401.256 143.641 401.704C144.045 402.375 144.942 402.644 145.75 402.734C146.871 402.823 147.992 402.689 149.114 402.689C150.235 402.689 151.402 402.913 152.299 403.584C153.196 404.256 153.645 405.555 153.151 406.54C152.882 407.033 152.434 407.391 152.299 407.928C152.075 408.69 152.568 409.541 153.286 409.899C154.004 410.302 154.811 410.347 155.619 410.391C156.471 410.436 157.323 410.481 158.176 410.571C158.669 410.615 159.163 410.615 159.611 410.839C160.778 411.377 161.181 412.765 161.45 413.974" stroke="#101828" stroke-width="2.13" stroke-linecap="round" stroke-linejoin="round"/>
<path d="M156.83 405.018C159.118 406.63 162.348 406.092 164.68 407.615C165.667 408.242 166.43 409.227 166.834 410.347" stroke="#101828" stroke-width="2.13" stroke-linecap="round" stroke-linejoin="round"/>
<path d="M344.12 243.709C348.516 243.037 353.002 243.799 357.174 245.276C361.346 246.754 365.249 248.904 369.107 251.143" stroke="#101828" stroke-width="2.13" stroke-linecap="round" stroke-linejoin="round"/>
<path d="M362.916 243.172C365.877 244.784 368.972 246.083 372.202 247.068C374.176 247.65 376.284 248.143 377.944 249.352" stroke="#101828" stroke-width="2.13" stroke-linecap="round" stroke-linejoin="round"/>
<path d="M316.845 288.447C316.307 290.104 317.024 292.075 318.505 293.015C319.043 293.329 319.671 293.553 320.12 294C321.151 294.986 320.793 296.687 320.479 298.031C319.851 300.539 319.357 303.136 319.895 305.689" stroke="#101828" stroke-width="2.13" stroke-linecap="round" stroke-linejoin="round"/>
<path d="M322.408 301.569C321.869 303.718 322.856 305.913 323.35 308.107C323.843 310.346 323.708 312.72 323.843 315.004C323.978 317.288 324.381 319.706 325.772 321.542C327.791 324.229 334.026 327.812 337.346 328.215" stroke="#101828" stroke-width="2.13" stroke-linecap="round" stroke-linejoin="round"/>
<path d="M327.477 326.916C328.329 328.259 332.277 329.603 333.802 330.051C335.596 330.543 337.48 330.857 339.32 330.902" stroke="#101828" stroke-width="2.13" stroke-linecap="round" stroke-linejoin="round"/>
<path d="M422.131 221.228C423.522 219.75 424.194 219.392 425.899 218.272" stroke="#101828" stroke-width="2.13" stroke-linecap="round" stroke-linejoin="round"/>
<path d="M424.374 223.019C425.54 222.034 426.258 221.452 427.738 221.049" stroke="#101828" stroke-width="2.13" stroke-linecap="round" stroke-linejoin="round"/>
<path d="M452.725 219.078C451.514 220.198 450.123 221.183 448.688 221.989" stroke="#101828" stroke-width="2.13" stroke-linecap="round" stroke-linejoin="round"/>
<path d="M454.968 219.123C452.815 222.258 449.181 224.005 445.772 225.662C442.363 227.363 438.684 227.632 436.979 231.036" stroke="#101828" stroke-width="2.13" stroke-linecap="round" stroke-linejoin="round"/>
<path d="M439.178 233.319C440.748 232.066 441.735 231.394 443.708 230.856" stroke="#101828" stroke-width="2.13" stroke-linecap="round" stroke-linejoin="round"/>
<path d="M495.925 190.104C496.867 189.969 497.764 189.925 498.707 189.969" stroke="#101828" stroke-width="2.13" stroke-linecap="round" stroke-linejoin="round"/>
<path d="M488.793 182.356C490.946 183.745 493.144 185.043 495.387 186.297" stroke="#101828" stroke-width="2.13" stroke-linecap="round" stroke-linejoin="round"/>
<path d="M487.088 197.493C490.228 195.209 493.593 192.88 497.406 192.433C497.809 192.388 498.258 192.388 498.572 192.612C499.021 192.97 498.841 193.821 498.303 194.045C497.765 194.313 497.092 194 496.778 193.507C496.464 193.015 496.508 192.343 496.733 191.806C496.778 191.671 496.867 191.537 497.002 191.447C497.181 191.268 497.495 191.268 497.72 191.268C499.065 191.223 500.411 190.865 501.488 190.059C502.565 189.253 503.282 187.954 503.237 186.611" stroke="#101828" stroke-width="2.13" stroke-linecap="round" stroke-linejoin="round"/>
<path d="M326.938 201.434C327.656 198.165 330.123 195.433 333.174 194C336.224 192.567 339.723 192.343 342.998 192.925" stroke="#101828" stroke-width="2.13" stroke-linecap="round" stroke-linejoin="round"/>
<path d="M342.191 188.089C346.138 187.954 350.086 189.701 352.688 192.656C354.168 194.358 355.245 196.418 356.725 198.12C356.905 198.344 357.129 198.523 357.398 198.613C357.802 198.747 358.206 198.568 358.564 198.433C361.121 197.403 363.679 196.329 366.236 195.299" stroke="#101828" stroke-width="2.13" stroke-linecap="round" stroke-linejoin="round"/>
<path d="M348.92 196.329C350.669 198.433 352.015 200.897 352.957 203.449" stroke="#101828" stroke-width="2.13" stroke-linecap="round" stroke-linejoin="round"/>
<path d="M327.477 204.434C327.432 205.599 326.49 206.539 325.503 207.166C324.516 207.793 323.394 208.331 322.722 209.271" stroke="#101828" stroke-width="2.13" stroke-linecap="round" stroke-linejoin="round"/>
<path fill-rule="evenodd" clip-rule="evenodd" d="M403.335 304.883C401.495 302.196 409.48 290.015 416.613 291.627C419.215 292.209 422.086 294.717 421.951 297.18C421.548 302.823 405.353 307.794 403.335 304.883Z" fill="#FD853A"/>
<path d="M161.495 297.359C158.804 301.837 163.155 303.808 163.29 305.42" stroke="#101828" stroke-width="2.13" stroke-linecap="round" stroke-linejoin="round"/>
</svg>
